<?xml version="1.0" encoding="UTF-8" standalone="no"?>
<svg
   inkscape:version="1.1 (c4e8f9ed74, 2021-05-24)"
   id="gz-audience"
   version="1.1"
   viewBox="0 0 540 540"
   height="540"
   width="540"
   role="img"
   aria-hidden="true"
   focusable="false"
   sodipodi:docname="audience.svg"
   xmlns:inkscape="http://www.inkscape.org/namespaces/inkscape"
   xmlns:sodipodi="http://sodipodi.sourceforge.net/DTD/sodipodi-0.dtd"
   xmlns="http://www.w3.org/2000/svg"
   xmlns:svg="http://www.w3.org/2000/svg"
   xmlns:rdf="http://www.w3.org/1999/02/22-rdf-syntax-ns#"
   xmlns:cc="http://creativecommons.org/ns#">
  <defs
     id="defs12591" />
  <sodipodi:namedview
     inkscape:object-nodes="false"
     inkscape:snap-bbox="true"
     inkscape:showpageshadow="false"
     units="px"
     showgrid="false"
     inkscape:document-rotation="0"
     inkscape:current-layer="gz-audience"
     inkscape:document-units="px"
     inkscape:cy="329.71239"
     inkscape:cx="89.242652"
     inkscape:zoom="1.3390458"
     inkscape:pageshadow="2"
     inkscape:pageopacity="0.0"
     borderopacity="1.0"
     bordercolor="#666666"
     pagecolor="#ffffff"
     id="base"
     inkscape:snap-page="true"
     inkscape:bbox-paths="true"
     inkscape:bbox-nodes="true"
     inkscape:window-width="2560"
     inkscape:window-height="1424"
     inkscape:window-x="1920"
     inkscape:window-y="16"
     inkscape:window-maximized="1"
     inkscape:pagecheckerboard="0" />
  <metadata
     id="metadata12594">
    <rdf:RDF>
      <cc:Work
         rdf:about="" />
    </rdf:RDF>
  </metadata>
  <path
     id="audience"
     d="m 268.69291,74.497298 c -8.72516,0.115597 -17.43028,1.375177 -25.7269,3.7936 l -0.0172,0.0086 -0.0202,0.0058 c -14.52658,4.207714 -28.20634,12.054527 -39.25042,22.476872 l -0.0147,0.0144 -0.0172,0.0144 c -11.31771,10.64291 -20.11439,24.20439 -25.15173,38.83626 l -0.009,0.0259 -0.009,0.0201 c -6.39206,18.4425 -6.95243,39.28998 -1.59624,58.10051 l 0.003,0.0172 0.006,0.0173 c 4.06723,14.37176 11.68982,27.94004 21.85275,38.96855 l 0.0147,0.0172 0.0147,0.0147 c 10.50385,11.4379 23.95224,20.39327 38.517,25.60896 l 0.023,0.009 0.023,0.009 c 16.3046,5.87685 34.56169,7.2011 51.66087,3.81086 l 0.0147,-0.003 0.0147,-0.006 c 14.35796,-2.82857 28.21833,-9.11392 39.86015,-18.05629 l 0.0172,-0.0172 0.0172,-0.0118 c 12.6043,-9.64622 22.90442,-22.59988 29.41408,-37.03004 l 0.009,-0.0173 0.009,-0.023 c 5.60942,-12.3719 8.54934,-26.1306 8.53345,-39.78537 v -0.0201 -0.0172 c 0.004,-9.16243 -1.28999,-18.33774 -3.83388,-27.0758 l -0.006,-0.0144 -0.003,-0.0144 c -4.2073,-14.52493 -12.05417,-28.20501 -22.47677,-39.24763 l -0.0172,-0.0173 -0.0147,-0.0144 C 329.88778,93.577654 316.32683,84.780382 301.69352,79.743341 l -0.023,-0.0058 -0.0259,-0.0086 c -9.3155,-3.228279 -19.24281,-4.968993 -29.21277,-5.211526 -1.24623,-0.03034 -2.49251,-0.03662 -3.73895,-0.02013 z m -128.4274,56.446732 v 0.003 c -1.06651,-0.0141 -2.13191,-0.009 -3.19824,0.0173 -8.53063,0.20753 -17.02572,1.69577 -24.99636,4.458 l -0.0201,0.009 -0.0202,0.006 c -12.520741,4.30993 -24.125416,11.83568 -33.233549,21.5192 l -0.01149,0.0115 -0.01149,0.0144 c -8.91792,9.44845 -15.635477,21.1537 -19.235492,33.58158 l -0.0029,0.0144 -0.0029,0.0144 c -2.176625,7.47659 -3.281718,15.3246 -3.278773,23.16427 v 0.0144 0.0173 c -0.01355,11.68348 2.499988,23.45596 7.299591,34.04176 l 0.0087,0.0202 0.0057,0.0147 c 5.569877,12.34695 14.384246,23.43259 25.168918,31.68622 l 0.01443,0.0118 0.01726,0.0118 c 9.961121,7.65137 21.819875,13.02743 34.105025,15.44765 l 0.0115,0.003 0.0115,0.003 c 6.68073,1.3246 13.56835,1.79959 20.40894,1.45532 7.47635,-9.95961 15.51127,-19.09345 24.07314,-27.27138 l 12.86776,-12.29252 c -9.48671,-9.95092 -17.39892,-21.45179 -23.10963,-33.90084 l -0.35952,-0.71903 -0.29911,-0.75067 c -6.98047,-15.70428 -10.63099,-33.08352 -10.61288,-50.25157 v -0.006 -0.003 -0.003 -0.006 c -0.004,-11.69109 1.64977,-23.46113 4.91816,-34.68889 v -0.003 l 0.0317,-0.10929 0.0374,-0.1208 c 0.43071,-1.47139 0.89971,-2.933 1.38629,-4.38896 -3.95135,-0.62181 -7.95986,-0.97074 -11.97329,-1.0239 z m 259.46632,0 c -4.01343,0.0532 -8.01906,0.40209 -11.97042,1.0239 0.48658,1.45596 0.9556,2.91756 1.38629,4.38896 l 0.0374,0.12079 0.0317,0.1093 v 0.003 c 3.26839,11.22775 4.92216,22.9978 4.91816,34.68888 v 0.006 0.003 0.003 0.006 c 0.0181,17.16806 -3.63241,34.5473 -10.61288,50.25157 l -0.29913,0.75067 -0.35951,0.71903 c -5.71072,12.44905 -13.62293,23.94992 -23.10963,33.90084 l 12.86776,12.29253 c 8.56187,8.17792 16.59679,17.31177 24.07313,27.27137 6.84059,0.34427 13.72823,-0.13076 20.40896,-1.45531 l 0.0118,-0.003 0.0118,-0.003 c 12.28517,-2.42022 24.14392,-7.79628 34.10504,-15.44766 l 0.0147,-0.0118 0.0172,-0.0118 c 10.78467,-8.25363 19.59905,-19.33926 25.16893,-31.68622 l 0.006,-0.0147 0.009,-0.0202 c 4.7996,-10.5858 7.31321,-22.35827 7.29959,-34.04176 v -0.0172 -0.0144 c 0.003,-7.83968 -1.10502,-15.68768 -3.28165,-23.16428 l -0.003,-0.0144 -0.003,-0.0144 C 476.85989,178.13405 470.14522,166.4288 461.2273,156.98036 l -0.0118,-0.0144 -0.0118,-0.0115 c -9.10813,-9.68353 -20.7128,-17.20928 -33.23357,-21.51913 l -0.0202,-0.006 -0.0202,-0.009 c -7.97064,-2.76223 -16.46572,-4.25047 -24.99636,-4.458 -1.06633,-0.0259 -2.13174,-0.0314 -3.19825,-0.0173 z M 186.22016,288.87755 A 166.69604,273.74006 0 0 0 107.34832,465.5116 h 325.27769 a 166.69604,273.74006 0 0 0 -78.8287,-176.59091 c -16.55811,11.81658 -35.52721,20.05771 -55.55227,24.00697 -0.004,7.3e-4 -0.009,-8.3e-4 -0.0118,0 -25.60318,5.07395 -52.34299,3.17244 -77.011,-5.71485 -12.49189,-4.47633 -24.26955,-10.67386 -35.00238,-18.33526 z M 67.445021,314.41463 C 33.142067,347.17926 8.7031117,401.93169 0,465.5116 h 79.866989 l 0.506197,-3.69582 c 6.302718,-46.04447 19.485153,-89.39012 38.517004,-126.15526 -1.30262,-0.2151 -2.60364,-0.44774 -3.90002,-0.70464 -0.003,-9.4e-4 -0.006,6.2e-4 -0.009,0 -17.134132,-3.37913 -33.368858,-10.43061 -47.536518,-20.54125 z m 405.107289,0 c -14.16766,10.11064 -30.3995,17.16212 -47.53363,20.54125 -0.003,6.2e-4 -0.006,-9.4e-4 -0.009,0 -1.29638,0.2569 -2.5974,0.48954 -3.90002,0.70464 19.03185,36.76514 32.21428,80.11079 38.517,126.15526 l 0.5062,3.69582 h 79.86698 a 142.63078,234.22128 0 0 0 -67.4477,-151.09697 z"
     style="fill:currentcolor" />
</svg>
