<?xml version="1.0" encoding="UTF-8" standalone="no"?>
<svg
   inkscape:version="1.1 (c4e8f9ed74, 2021-05-24)"
   id="gz-browser"
   version="1.1"
   viewBox="0 0 540 540"
   height="540"
   width="540"
   sodipodi:docname="browser.svg"
   role="img"
   aria-hidden="true"
   focusable="false"
   xmlns:inkscape="http://www.inkscape.org/namespaces/inkscape"
   xmlns:sodipodi="http://sodipodi.sourceforge.net/DTD/sodipodi-0.dtd"
   xmlns="http://www.w3.org/2000/svg"
   xmlns:svg="http://www.w3.org/2000/svg"
   xmlns:rdf="http://www.w3.org/1999/02/22-rdf-syntax-ns#"
   xmlns:cc="http://creativecommons.org/ns#"
   xmlns:dc="http://purl.org/dc/elements/1.1/">
  <defs
     id="defs12591" />
  <sodipodi:namedview
     inkscape:object-nodes="false"
     inkscape:snap-bbox="true"
     inkscape:showpageshadow="false"
     units="px"
     showgrid="false"
     inkscape:document-rotation="0"
     inkscape:current-layer="gz-browser"
     inkscape:document-units="px"
     inkscape:cy="265.82234"
     inkscape:cx="306.94816"
     inkscape:zoom="1.3373594"
     inkscape:pageshadow="2"
     inkscape:pageopacity="0.0"
     borderopacity="1.0"
     bordercolor="#666666"
     pagecolor="#ffffff"
     id="base"
     inkscape:snap-page="true"
     inkscape:bbox-paths="false"
     inkscape:bbox-nodes="false"
     inkscape:snap-intersection-paths="false"
     inkscape:snap-smooth-nodes="true"
     inkscape:window-width="2560"
     inkscape:window-height="1424"
     inkscape:window-x="1920"
     inkscape:window-y="16"
     inkscape:window-maximized="1"
     inkscape:object-paths="false"
     inkscape:pagecheckerboard="0" />
  <metadata
     id="metadata12594">
    <rdf:RDF>
      <cc:Work
         rdf:about="">
        <dc:format>image/svg+xml</dc:format>
        <dc:type
           rdf:resource="http://purl.org/dc/dcmitype/StillImage" />
        <dc:title />
      </cc:Work>
    </rdf:RDF>
  </metadata>
  <g
     id="browser">
    <path
       style="fill:currentcolor"
       d="m 35,56.6875 c -19.130522,0 -35,15.869478 -35,35 v 356.625 c 0,19.13052 15.869478,35 35,35 h 470 c 19.13052,0 35,-15.86948 35,-35 V 91.6875 c 0,-19.130522 -15.86948,-35 -35,-35 z m 0,30 h 470 c 3.02946,0 5,1.970545 5,5 v 356.625 c 0,3.02946 -1.97054,5 -5,5 H 35 c -3.029455,0 -5,-1.97054 -5,-5 V 91.6875 c 0,-3.029455 1.970545,-5 5,-5 z"
       id="border" />
    <path
       style="fill:currentcolor"
       d="m 0,124.76367 v 20 h 540 v -20 z"
       id="divider" />
    <path
       style="fill:currentcolor"
       d="m 121.00586,188.87109 c -16.44701,0 -30.000001,13.55299 -30.000001,30 v 158.11914 c 0,16.44702 13.552991,30 30.000001,30 h 288.41016 c 16.44701,0 30,-13.55298 30,-30 V 218.87109 c 0,-16.44701 -13.55299,-30 -30,-30 z m 0,20 h 288.41016 c 5.71296,0 10,4.28704 10,10 v 158.11914 c 0,5.71297 -4.28704,10 -10,10 H 121.00586 c -5.71297,0 -10,-4.28703 -10,-10 V 218.87109 c 0,-5.71296 4.28703,-10 10,-10 z"
       id="content" />
    <path
       id="play"
       d="m 323.06241,296.9538 -89.21848,51.88604 V 245.06777 Z"
       style="fill:currentcolor" />
    <path
       style="fill:currentcolor"
       d="m 57.505859,101.89453 v 10 H 219.67383 v -10 z"
       id="url" />
    <path
       id="button"
       style="fill:currentcolor"
       d="m 488.75297,107.01677 a 10.542706,10.542706 0 0 1 -10.5427,10.5427 10.542706,10.542706 0 0 1 -10.54271,-10.5427 10.542706,10.542706 0 0 1 10.54271,-10.542706 10.542706,10.542706 0 0 1 10.5427,10.542706 z" />
  </g>
</svg>
