<?xml version="1.0" encoding="UTF-8" standalone="no"?>
<svg
   xmlns:dc="http://purl.org/dc/elements/1.1/"
   xmlns:cc="http://creativecommons.org/ns#"
   xmlns:rdf="http://www.w3.org/1999/02/22-rdf-syntax-ns#"
   xmlns:svg="http://www.w3.org/2000/svg"
   xmlns="http://www.w3.org/2000/svg"
   xmlns:sodipodi="http://sodipodi.sourceforge.net/DTD/sodipodi-0.dtd"
   xmlns:inkscape="http://www.inkscape.org/namespaces/inkscape"
   inkscape:version="1.0.2 (e86c870879, 2021-01-15)"
   id="gz-creator"
   version="1.1"
   viewBox="0 0 540 540"
   height="540"
   width="540"
   role="img"
   aria-hidden="true"
   focusable="false"
   sodipodi:docname="creator.svg">
  <defs
     id="defs12591">
    <inkscape:path-effect
       effect="offset"
       id="path-effect905"
       is_visible="true"
       lpeversion="1"
       linejoin_type="miter"
       unit="mm"
       offset="5"
       miter_limit="4"
       attempt_force_join="true"
       update_on_knot_move="true" />
    <rect
       x="664.05785"
       y="-162.70731"
       width="869.77676"
       height="929.28342"
       id="rect914" />
  </defs>
  <sodipodi:namedview
     inkscape:object-nodes="false"
     inkscape:snap-bbox="true"
     inkscape:showpageshadow="false"
     units="px"
     showgrid="false"
     inkscape:document-rotation="0"
     inkscape:current-layer="gz-creator"
     inkscape:document-units="px"
     inkscape:cy="336.17878"
     inkscape:cx="126.63828"
     inkscape:zoom="0.66867968"
     inkscape:pageshadow="2"
     inkscape:pageopacity="0.0"
     borderopacity="1.0"
     bordercolor="#666666"
     pagecolor="#ffffff"
     id="base"
     inkscape:snap-page="true"
     inkscape:bbox-paths="true"
     inkscape:bbox-nodes="true"
     showborder="true"
     inkscape:window-width="1904"
     inkscape:window-height="1048"
     inkscape:window-x="1928"
     inkscape:window-y="24"
     inkscape:window-maximized="0" />
  <metadata
     id="metadata12594">
    <rdf:RDF>
      <cc:Work
         rdf:about="">
        <dc:format>image/svg+xml</dc:format>
        <dc:type
           rdf:resource="http://purl.org/dc/dcmitype/StillImage" />
        <dc:title></dc:title>
      </cc:Work>
    </rdf:RDF>
  </metadata>
  <path
     id="creator"
     style="fill:currentcolor"
     d="m 216.68164,7.4453877 c -11.71761,0.155163 -23.40678,1.851741 -34.54883,5.0996103 l -0.0254,0.0098 -0.0273,0.0078 c -19.50872,5.650846 -37.88302,16.190635 -52.71485,30.1875 l -0.0176,0.01953 -0.0215,0.02148 c -15.19936,14.29196 -27.01234,32.504184 -33.777342,52.154301 l -0.0098,0.02929 -0.01367,0.03321 c -8.584307,24.767648 -9.337725,52.761488 -2.144532,78.023428 l 0.0059,0.0234 0.0078,0.0254 c 5.462167,19.30081 15.697199,37.52307 29.345699,52.33399 l 0.0176,0.0215 0.0195,0.0195 c 14.10634,15.36072 32.16854,27.38808 51.72852,34.39258 l 0.0293,0.01 0.0293,0.0117 c 21.89653,7.89242 46.41527,9.67212 69.37891,5.11915 l 0.0195,-0.006 0.0195,-0.006 c 19.28228,-3.79866 37.89863,-12.24266 53.5332,-24.25196 l 0.0215,-0.0176 0.0215,-0.0176 c 16.92718,-12.95457 30.76362,-30.35319 39.50586,-49.73243 l 0.0117,-0.0254 0.0137,-0.0312 c 7.53326,-16.61506 11.47837,-35.09175 11.45704,-53.42968 v -0.0254 -0.0215 c 0.006,-12.30483 -1.73211,-24.62639 -5.14844,-36.36133 l -0.006,-0.0195 -0.006,-0.0215 c -5.65035,-19.505688 -16.1903,-37.87911 -30.1875,-52.708984 l -0.0195,-0.02148 -0.0195,-0.01953 C 298.86516,33.07286 280.65207,21.256833 261,14.492263 l -0.0312,-0.0078 -0.0312,-0.01172 c -12.51041,-4.335481 -25.84506,-6.6742793 -39.23438,-7.0000003 -1.67366,-0.04068 -3.34753,-0.049554 -5.02148,-0.027344 z M 105.92383,295.35164 A 223.8673,367.6239 0 0 0 0,532.56648 h 283.30078 c -1.04879,-3.53178 -1.60937,-7.22326 -1.60937,-10.95312 V 393.40437 c 0,-19.04011 14.35411,-37.18945 36.02343,-37.18945 h 60.79102 a 223.8673,367.6239 0 0 0 -47.53125,-60.80274 c -22.23697,15.86928 -47.71444,26.93455 -74.60742,32.23828 -0.006,9.8e-4 -0.009,0.002 -0.0156,0.002 -34.38424,6.81413 -70.29159,4.25764 -103.41992,-7.67774 -16.77622,-6.0116 -32.59395,-14.33404 -47.00781,-24.62304 z m 211.79101,87.09765 c -5.4235,0 -9.78906,4.88621 -9.78906,10.95508 V 521.6114 c 0,6.06889 4.36556,10.95508 9.78906,10.95508 h 164.08594 c 5.4235,0 9.78906,-4.88619 9.78906,-10.95508 V 479.10164 L 540,520.31648 V 395.38484 l -48.41016,41.2168 v -43.19727 c 0,-6.06887 -4.36556,-10.95508 -9.78906,-10.95508 z" />
</svg>
