<?xml version="1.0" encoding="UTF-8" standalone="no"?>
<svg
   inkscape:version="1.1 (c4e8f9ed74, 2021-05-24)"
   id="gz-file"
   version="1.1"
   viewBox="0 0 540 540"
   height="540"
   width="540"
   focusable="false"
   aria-hidden="true"
   role="img"
   sodipodi:docname="file.svg"
   xmlns:inkscape="http://www.inkscape.org/namespaces/inkscape"
   xmlns:sodipodi="http://sodipodi.sourceforge.net/DTD/sodipodi-0.dtd"
   xmlns="http://www.w3.org/2000/svg"
   xmlns:svg="http://www.w3.org/2000/svg"
   xmlns:rdf="http://www.w3.org/1999/02/22-rdf-syntax-ns#"
   xmlns:cc="http://creativecommons.org/ns#"
   xmlns:dc="http://purl.org/dc/elements/1.1/">
  <defs
     id="defs12591" />
  <sodipodi:namedview
     inkscape:object-nodes="true"
     inkscape:snap-bbox="true"
     inkscape:showpageshadow="false"
     units="px"
     showgrid="false"
     inkscape:document-rotation="0"
     inkscape:current-layer="gz-file"
     inkscape:document-units="px"
     inkscape:cy="168.1904"
     inkscape:cx="174.25131"
     inkscape:zoom="0.98994949"
     inkscape:pageshadow="2"
     inkscape:pageopacity="0.0"
     borderopacity="1.0"
     bordercolor="#666666"
     pagecolor="#ffffff"
     id="base"
     inkscape:pagecheckerboard="0"
     inkscape:snap-page="true"
     inkscape:bbox-paths="true"
     inkscape:bbox-nodes="true"
     inkscape:snap-intersection-paths="true"
     inkscape:object-paths="true"
     inkscape:window-width="2560"
     inkscape:window-height="1424"
     inkscape:window-x="1920"
     inkscape:window-y="16"
     inkscape:window-maximized="1" />
  <metadata
     id="metadata12594">
    <rdf:RDF>
      <cc:Work
         rdf:about="">
        <dc:format>image/svg+xml</dc:format>
        <dc:type
           rdf:resource="http://purl.org/dc/dcmitype/StillImage" />
      </cc:Work>
    </rdf:RDF>
  </metadata>
  <path
     id="file"
     style="fill:currentcolor"
     d="M 80.578696,0 C 70.914122,9.9391686e-4 63.079687,7.8354286 63.078693,17.5 v 505 c 9.94e-4,9.66457 7.835429,17.49901 17.500003,17.5 H 459.42131 c 9.66457,-9.9e-4 17.49901,-7.83543 17.5,-17.5 V 133.31836 c 1.4e-4,-4.64138 -1.84336,-9.09274 -5.125,-12.375 L 355.97991,5.125 C 352.69765,1.8433578 348.24629,-1.3715182e-4 343.60491,0 Z m 17.5,35 H 301.40959 v 122.88086 c 9.7e-4,9.66458 7.83542,17.49903 17.5,17.5 H 441.92131 V 505 H 98.078696 Z M 336.40959,35.05273 441.73576,140.38086 H 336.40959 Z" />
</svg>
