<?xml version="1.0" encoding="UTF-8" standalone="no"?>
<svg
   inkscape:version="1.1 (c4e8f9ed74, 2021-05-24)"
   id="gz-folder-open"
   version="1.1"
   viewBox="0 0 665.86963 540"
   height="540"
   width="665.86963"
   sodipodi:docname="folder-open.svg"
   aria-hidden="true"
   role="img"
   focusable="false"
   xmlns:inkscape="http://www.inkscape.org/namespaces/inkscape"
   xmlns:sodipodi="http://sodipodi.sourceforge.net/DTD/sodipodi-0.dtd"
   xmlns="http://www.w3.org/2000/svg"
   xmlns:svg="http://www.w3.org/2000/svg"
   xmlns:rdf="http://www.w3.org/1999/02/22-rdf-syntax-ns#"
   xmlns:cc="http://creativecommons.org/ns#"
   xmlns:dc="http://purl.org/dc/elements/1.1/">
  <defs
     id="defs12591">
    <inkscape:path-effect
       effect="perspective-envelope"
       up_left_point="142.23578,263.46535"
       up_right_point="656.40845,263.46535"
       down_left_point="32.360675,455.27101"
       down_right_point="506.83853,455.27101"
       id="path-effect7506"
       is_visible="true"
       lpeversion="1"
       deform_type="perspective"
       horizontal_mirror="false"
       vertical_mirror="false"
       overflow_perspective="false" />
    <inkscape:path-effect
       effect="perspective-envelope"
       up_left_point="142.23578,263.46535"
       up_right_point="656.40845,263.46535"
       down_left_point="32.360675,455.27101"
       down_right_point="506.83853,455.27101"
       id="path-effect4775"
       is_visible="true"
       lpeversion="1"
       deform_type="perspective"
       horizontal_mirror="false"
       vertical_mirror="false"
       overflow_perspective="false" />
  </defs>
  <sodipodi:namedview
     inkscape:object-nodes="true"
     inkscape:snap-bbox="true"
     inkscape:showpageshadow="false"
     units="px"
     showgrid="false"
     inkscape:document-rotation="0"
     inkscape:current-layer="gz-folder-open"
     inkscape:document-units="px"
     inkscape:cy="187.3833"
     inkscape:cx="278.29703"
     inkscape:zoom="0.98994949"
     inkscape:pageshadow="2"
     inkscape:pageopacity="0.0"
     borderopacity="1.0"
     bordercolor="#666666"
     pagecolor="#ffffff"
     id="base"
     inkscape:pagecheckerboard="0"
     inkscape:bbox-paths="true"
     inkscape:bbox-nodes="true"
     inkscape:snap-page="true"
     inkscape:window-width="2560"
     inkscape:window-height="1424"
     inkscape:window-x="1920"
     inkscape:window-y="16"
     inkscape:window-maximized="1"
     inkscape:object-paths="false"
     inkscape:snap-intersection-paths="true"
     inkscape:snap-midpoints="false"
     inkscape:snap-smooth-nodes="true" />
  <metadata
     id="metadata12594">
    <rdf:RDF>
      <cc:Work
         rdf:about="">
        <dc:format>image/svg+xml</dc:format>
        <dc:type
           rdf:resource="http://purl.org/dc/dcmitype/StillImage" />
      </cc:Work>
    </rdf:RDF>
  </metadata>
  <path
     id="folder-open"
     d="m 45.908203,65.402344 c -26.407661,0 -46.017578,23.552438 -46.017578,49.712886 v 71.58985 238.17773 3.69531 c 0,11.83347 5.1070093,22.47701 12.394531,30.19922 8.097163,9.36872 20.175845,15.82032 33.623047,15.82032 h 3.695313 205.609374 235.18359 c 15.21335,0 29.50597,-6.66286 38.83594,-17.40625 1.40193,-1.45368 2.78029,-2.95593 4.07422,-4.61524 L 658.44531,292.09961 c 6.36266,-8.15934 10.73047,-22.10646 3.75391,-33.64844 C 655.22265,246.90919 643.29235,244.25 633.10156,244.25 h -92.99218 v -57.54492 c 0,-26.40767 -23.55244,-46.01758 -49.7129,-46.01758 H 271.00977 v -25.57227 c 0,-26.160446 -19.60992,-49.712886 -46.01758,-49.712886 z m 0,34.999996 H 224.99219 c 5.19024,0 11.01758,5.181 11.01758,14.71289 v 43.07227 a 17.50175,17.50175 0 0 0 17.5,17.5 h 236.88671 c 9.53191,0 14.71291,5.82737 14.7129,11.01758 V 244.25 H 165.54297 c -20.38158,0 -38.92714,7.82798 -49.61328,26.48242 L 34.890625,412.19727 V 186.70508 115.11523 c 0,-9.53189 5.827361,-14.71289 11.017578,-14.71289 z M 165.54297,282.67969 H 617.05859 L 503.00195,428.94531 c -0.45729,0.58643 -12.68956,7.11133 -17.67187,7.11133 H 65.511719 L 149.27539,289.83398 c -0.0439,0.0766 10.82466,-7.15429 16.26758,-7.15429 z" />
</svg>
