<?xml version="1.0" encoding="UTF-8" standalone="no"?>
<svg
   inkscape:version="1.1 (c4e8f9ed74, 2021-05-24)"
   id="gz-folder-closed"
   version="1.1"
   viewBox="0 0 540 540"
   height="540"
   width="540"
   sodipodi:docname="folder-closed.svg"
   aria-hidden="true"
   role="img"
   focusable="false"
   xmlns:inkscape="http://www.inkscape.org/namespaces/inkscape"
   xmlns:sodipodi="http://sodipodi.sourceforge.net/DTD/sodipodi-0.dtd"
   xmlns="http://www.w3.org/2000/svg"
   xmlns:svg="http://www.w3.org/2000/svg"
   xmlns:rdf="http://www.w3.org/1999/02/22-rdf-syntax-ns#"
   xmlns:cc="http://creativecommons.org/ns#"
   xmlns:dc="http://purl.org/dc/elements/1.1/">
  <defs
     id="defs12591" />
  <sodipodi:namedview
     inkscape:object-nodes="false"
     inkscape:snap-bbox="true"
     inkscape:showpageshadow="false"
     units="px"
     showgrid="false"
     inkscape:document-rotation="0"
     inkscape:current-layer="gz-folder-closed"
     inkscape:document-units="px"
     inkscape:cy="299.28571"
     inkscape:cx="290.71429"
     inkscape:zoom="0.7"
     inkscape:pageshadow="2"
     inkscape:pageopacity="0.0"
     borderopacity="1.0"
     bordercolor="#666666"
     pagecolor="#ffffff"
     id="base"
     inkscape:pagecheckerboard="0"
     inkscape:bbox-paths="true"
     inkscape:bbox-nodes="true"
     inkscape:snap-page="true"
     inkscape:window-width="2560"
     inkscape:window-height="1424"
     inkscape:window-x="1920"
     inkscape:window-y="16"
     inkscape:window-maximized="1" />
  <metadata
     id="metadata12594">
    <rdf:RDF>
      <cc:Work
         rdf:about="">
        <dc:format>image/svg+xml</dc:format>
        <dc:type
           rdf:resource="http://purl.org/dc/dcmitype/StillImage" />
      </cc:Work>
    </rdf:RDF>
  </metadata>
  <path
     style="fill:currentcolor"
     d="m 45.908203,65.402344 c -26.407661,0 -46.017578,23.55243 -46.017578,49.712886 v 71.58985 238.17773 3.69531 c 0,11.83347 5.1070089,22.47701 12.394531,30.19922 8.097163,9.36872 20.175845,15.82032 33.623047,15.82032 h 3.695313 205.609374 235.18359 c 26.16195,0 49.7129,-19.61187 49.71289,-46.01954 V 186.70508 c 0,-26.40767 -23.55243,-46.01758 -49.71289,-46.01758 H 271.00977 v -25.57227 c 0,-26.160454 -19.60992,-49.712886 -46.01758,-49.712886 z m 0,34.999996 H 224.99219 c 5.19024,0 11.01758,5.181 11.01758,14.71289 v 43.07227 a 17.50175,17.50175 0 0 0 17.5,17.5 h 236.88671 c 9.53191,0 14.7129,5.82737 14.71289,11.01758 v 241.87304 c 0,5.19021 -5.18247,11.01954 -14.71289,11.01954 H 255.21289 49.603516 45.908203 c -2.647508,0 -4.989157,-1.07216 -7.267578,-3.77149 a 17.50175,17.50175 0 0 0 -0.822266,-0.91015 c -2.157898,-2.22044 -2.927734,-4.16943 -2.927734,-6.3379 v -3.69531 -238.17773 -71.58985 c 0,-9.53189 5.827361,-14.71289 11.017578,-14.71289 z"
     id="folder-closed" />
</svg>
