<?xml version="1.0" encoding="UTF-8" standalone="no"?>
<svg
   inkscape:version="1.1 (c4e8f9ed74, 2021-05-24)"
   id="gz-follow"
   version="1.1"
   viewBox="0 0 540 540"
   height="540"
   width="540"
   role="img"
   aria-hidden="true"
   focusable="false"
   sodipodi:docname="follow.svg"
   xmlns:inkscape="http://www.inkscape.org/namespaces/inkscape"
   xmlns:sodipodi="http://sodipodi.sourceforge.net/DTD/sodipodi-0.dtd"
   xmlns="http://www.w3.org/2000/svg"
   xmlns:svg="http://www.w3.org/2000/svg"
   xmlns:rdf="http://www.w3.org/1999/02/22-rdf-syntax-ns#"
   xmlns:cc="http://creativecommons.org/ns#"
   xmlns:dc="http://purl.org/dc/elements/1.1/">
  <defs
     id="defs12591" />
  <sodipodi:namedview
     inkscape:object-nodes="false"
     inkscape:snap-bbox="true"
     inkscape:showpageshadow="false"
     units="px"
     showgrid="false"
     inkscape:document-rotation="0"
     inkscape:current-layer="gz-follow"
     inkscape:document-units="px"
     inkscape:cy="281.17037"
     inkscape:cx="234.86874"
     inkscape:zoom="1.3390458"
     inkscape:pageshadow="2"
     inkscape:pageopacity="0.0"
     borderopacity="1.0"
     bordercolor="#666666"
     pagecolor="#ffffff"
     id="base"
     inkscape:snap-page="true"
     inkscape:bbox-paths="true"
     inkscape:bbox-nodes="true"
     inkscape:window-width="2560"
     inkscape:window-height="1424"
     inkscape:window-x="1920"
     inkscape:window-y="16"
     inkscape:window-maximized="1"
     inkscape:pagecheckerboard="0" />
  <metadata
     id="metadata12594">
    <rdf:RDF>
      <cc:Work
         rdf:about="">
        <dc:format>image/svg+xml</dc:format>
        <dc:type
           rdf:resource="http://purl.org/dc/dcmitype/StillImage" />
      </cc:Work>
    </rdf:RDF>
  </metadata>
  <path
     id="follow"
     style="fill:currentcolor"
     d="m 201.37695,25.988912 c -10.89004,0.144211 -21.75227,1.719799 -32.10742,4.738281 l -0.0234,0.0078 -0.0254,0.0078 c -18.13091,5.251743 -35.2059,15.046359 -48.99023,28.054688 l -0.0176,0.01758 -0.0215,0.01953 C 106.06563,72.118206 95.087994,89.044965 88.800781,107.30728 l -0.01172,0.0293 -0.0098,0.0273 c -7.978036,23.01843 -8.679311,49.03589 -1.994141,72.51367 l 0.0039,0.0234 0.0078,0.0215 c 5.076393,17.93767 14.588875,34.87377 27.273435,48.63867 l 0.0176,0.0215 0.0176,0.0176 c 13.11007,14.27587 29.89566,25.45309 48.07422,31.9629 l 0.0293,0.01 0.0274,0.0117 c 20.35008,7.33501 43.13865,8.98728 64.48047,4.75586 l 0.0176,-0.004 0.0176,-0.006 c 17.92045,-3.53038 35.21962,-11.37792 49.75,-22.53906 l 0.0215,-0.0176 0.0195,-0.0156 c 15.73168,-12.03964 28.58806,-28.20818 36.71289,-46.21875 l 0.0117,-0.0234 0.0117,-0.0293 c 7.00122,-15.4416 10.67022,-32.61345 10.65039,-49.65625 v -0.0234 -0.0215 c 0.005,-11.43579 -1.6101,-22.88683 -4.78516,-33.79297 l -0.006,-0.0195 -0.006,-0.0195 C 313.8812,94.825095 304.08677,77.751895 291.07812,63.969381 l -0.0176,-0.01953 -0.0176,-0.01758 C 277.75686,49.806847 260.82857,38.826504 242.56445,32.539693 l -0.0293,-0.0098 -0.0293,-0.0098 c -11.62685,-4.029286 -24.01919,-6.203147 -36.46289,-6.505859 -1.55546,-0.03784 -3.1103,-0.04599 -4.66602,-0.02539 z m 163.55469,70.455083 c -5.00924,0.06632 -10.00966,0.49931 -14.94141,1.27539 0.60731,1.81721 1.19097,3.642035 1.72852,5.478515 l 0.0469,0.15234 0.0391,0.13477 v 0.004 c 4.07934,14.01359 6.14562,28.705 6.14062,43.29687 v 0.006 0.004 0.006 0.006 c 0.0227,21.42779 -4.53557,43.11989 -13.24804,62.7207 l -0.37305,0.93555 -0.44922,0.90039 c -7.12765,15.5379 -17.00322,29.89061 -28.84375,42.31054 l 16.0625,15.34375 c 10.68623,10.20702 20.71551,21.60634 30.04687,34.03711 8.53787,0.42969 17.13236,-0.16122 25.47071,-1.81445 l 0.0156,-0.004 0.0156,-0.004 c 15.33335,-3.02072 30.13568,-9.73337 42.56836,-19.28321 l 0.0176,-0.0156 0.0176,-0.0137 c 13.46055,-10.30152 24.46219,-24.13642 31.41407,-39.54688 l 0.008,-0.0195 0.0117,-0.0254 c 5.99048,-13.21235 9.1283,-27.90589 9.11133,-42.48828 v -0.0195 -0.0176 c 0.004,-9.78485 -1.37707,-19.58239 -4.09375,-28.91406 l -0.004,-0.0176 -0.004,-0.0156 c -4.49325,-15.51149 -12.87523,-30.12127 -24.00586,-41.91406 l -0.0156,-0.0176 -0.0156,-0.0156 c -11.36805,-12.08619 -25.85111,-21.48017 -41.47851,-26.85938 l -0.0254,-0.008 -0.0254,-0.01 c -9.94832,-3.447595 -20.55002,-5.307395 -31.19727,-5.566415 -1.33091,-0.0324 -2.66301,-0.0392 -3.99414,-0.02148 z M 98.441406,293.55923 A 208.05654,341.66026 0 0 0 0,514.02212 H 405.98438 A 208.05654,341.66026 0 0 0 307.59961,293.61587 c -20.66648,14.74849 -44.34422,25.03373 -69.33789,29.96289 -0.005,9e-4 -0.0101,7.8e-4 -0.0156,0.002 -31.95583,6.33288 -65.32856,3.95764 -96.11718,-7.13476 -15.59137,-5.58698 -30.29163,-13.32243 -43.687504,-22.88477 z m 357.378904,31.87695 c -17.68294,12.6193 -37.94269,21.41916 -59.32812,25.63672 -0.004,7.7e-4 -0.009,6.6e-4 -0.0137,0.002 -1.61804,0.32066 -3.24137,0.61044 -4.86719,0.87891 23.75402,45.88728 40.20768,99.98608 48.07422,157.45508 l 0.63086,4.61328 H 540 A 178.02023,292.3361 0 0 0 455.82031,325.43618 Z" />
</svg>
