<?xml version="1.0" encoding="UTF-8" standalone="no"?>
<svg
   xmlns:dc="http://purl.org/dc/elements/1.1/"
   xmlns:cc="http://creativecommons.org/ns#"
   xmlns:rdf="http://www.w3.org/1999/02/22-rdf-syntax-ns#"
   xmlns:svg="http://www.w3.org/2000/svg"
   xmlns="http://www.w3.org/2000/svg"
   xmlns:sodipodi="http://sodipodi.sourceforge.net/DTD/sodipodi-0.dtd"
   xmlns:inkscape="http://www.inkscape.org/namespaces/inkscape"
   role="img"
   focusable="false"
   aria-hidden="true"
   inkscape:version="1.0 (4035a4fb49, 2020-05-01)"
   sodipodi:docname="gatsby-title.svg"
   id="gz-gatsby-title"
   version="1.1"
   viewBox="0 0 540 540"
   height="540"
   width="540">
  <defs
     id="defs2" />
  <sodipodi:namedview
     inkscape:snap-intersection-paths="false"
     inkscape:window-maximized="0"
     inkscape:window-y="24"
     inkscape:window-x="8"
     inkscape:window-height="1048"
     inkscape:window-width="1904"
     units="px"
     lock-margins="false"
     fit-margin-bottom="0"
     fit-margin-right="0"
     fit-margin-left="0"
     fit-margin-top="0"
     showborder="true"
     showgrid="false"
     inkscape:document-rotation="0"
     inkscape:current-layer="gz-svg-gatsby-title"
     inkscape:document-units="px"
     inkscape:cy="373.58689"
     inkscape:cx="237.79354"
     inkscape:zoom="0.82042425"
     inkscape:pageshadow="2"
     inkscape:pageopacity="0.0"
     borderopacity="1.0"
     bordercolor="#666666"
     pagecolor="#ffffff"
     id="base"
     inkscape:snap-global="true"
     inkscape:showpageshadow="false"
     inkscape:snap-bbox="true"
     inkscape:bbox-paths="true"
     inkscape:bbox-nodes="true"
     inkscape:snap-page="true"
     inkscape:snap-midpoints="false"
     inkscape:snap-bbox-edge-midpoints="false"
     inkscape:snap-nodes="true"
     inkscape:object-nodes="false"
     inkscape:object-paths="false"
     inkscape:snap-others="true"
     inkscape:snap-object-midpoints="false">
    <inkscape:grid
       originy="245.93748"
       originx="21.342931"
       enabled="false"
       units="px"
       spacingy="26.458333"
       id="grid833"
       type="axonomgrid" />
    <inkscape:grid
       spacingy="6.6145833"
       spacingx="6.6145833"
       originy="245.93747"
       originx="7.6238739"
       id="grid844"
       type="xygrid" />
  </sodipodi:namedview>
  <metadata
     id="metadata5">
    <rdf:RDF>
      <cc:Work
         rdf:about="">
        <dc:format>image/svg+xml</dc:format>
        <dc:type
           rdf:resource="http://purl.org/dc/dcmitype/StillImage" />
        <dc:title />
      </cc:Work>
    </rdf:RDF>
  </metadata>
  <g
     id="gatsby-title">
    <g
       id="gatsby">
      <g
         id="brim">
        <path
           d="m 0,311.50441 v 6.17712 c -3.5160134e-4,15.93406 38.279291,28.85123 85.499779,28.85125 47.220671,6e-5 85.500581,-12.91713 85.500221,-28.85125 v -6.17712 z"
           style="fill:#97844e"
           id="brim-underbrim" />
        <path
           d="M 170.99979,311.50451 A 85.499893,28.851032 0 0 1 85.499893,340.35554 85.499893,28.851032 0 0 1 0,311.50451 85.499893,28.851032 0 0 1 85.499893,282.65348 85.499893,28.851032 0 0 1 170.99979,311.50451"
           style="fill:#b29b5c"
           id="brim-body" />
        <path
           id="brim-shadow"
           style="opacity:0.15;fill:#000000"
           d="M 0,311.50441 H 85.499779 V 282.65359 C 38.279785,282.65362 3.5087617e-4,295.57053 0,311.50441 Z" />
      </g>
      <g
         id="crown">
        <path
           id="crown-body"
           style="fill:#b29b5c"
           d="m 85.499678,183.21752 c -32.527009,2e-5 -58.953692,6.57939 -58.953692,6.57939 L 33.9608,311.393 l 103.07818,0.10942 7.41482,-121.70551 c 0,0 -26.42712,-6.5794 -58.954122,-6.57939 z" />
        <path
           id="crown-decoration"
           style="fill:#ffffff"
           d="m 85.477578,282.65359 c -19.189253,0.002 -37.818991,2.18153 -52.891928,6.18888 l 1.375258,22.65995 H 137.03909 l 1.37526,-22.65995 c -15.07903,-4.00897 -33.71755,-6.18893 -52.914571,-6.18888 h -0.02223 z" />
        <path
           id="crown-shadow"
           style="opacity:0.15;fill:#000000"
           d="m 52.170562,185.34568 c -15.465716,1.92365 -25.624469,4.45318 -25.624469,4.45318 l 7.414815,121.70356 25.893073,0.001 -4.345186,-71.36191 c -1.112624,-18.26528 -2.225774,-36.53066 -3.338233,-54.79609 z" />
        <g
           id="play">
          <path
             d="M 113.10095,236.03 71.699522,258.65432 V 213.4057 Z"
             style="fill:#ffffff"
             id="play-body" />
          <path
             d="m 71.699607,213.40547 v 0.01 l 38.347293,24.28417 3.05397,-1.66907 z"
             style="opacity:0.15;fill:#000000"
             id="play-shadow" />
        </g>
      </g>
    </g>
    <g
       id="title">
      <path
         style="fill:currentcolor"
         id="g"
         d="m 222.5955,318.94627 q -7.71848,0 -14.29347,-4.28803 -6.43207,-4.1451 -10.29131,-12.14946 -3.85924,-8.00432 -3.85924,-19.2962 0,-11.00596 3.43044,-22.2978 3.43043,-11.29185 9.29076,-21.44022 6.00326,-10.2913 13.72173,-18.29565 7.71848,-8.14729 16.15163,-12.7212 8.57609,-4.71684 17.15217,-4.71684 6.00327,0 9.57663,2.4299 3.57337,2.28694 5.14565,6.14619 1.57229,3.7163 1.57229,8.00433 0,5.00272 -1.85815,10.00544 -1.71522,4.85977 -4.71685,8.14729 -3.00163,3.28748 -6.575,3.28748 -1.57228,0 -3.00163,-0.85758 -1.28641,-1.00055 -2.42989,-3.43045 2.00109,-1.42935 4.57391,-5.00272 2.71576,-3.7163 4.71685,-8.14728 2.00108,-4.43099 2.00108,-8.00436 0,-3.0016 -1.85815,-5.00269 -1.85815,-2.00109 -6.14619,-2.00109 -6.28913,0 -13.15,4.85976 -6.71793,4.8598 -12.86413,13.00708 -6.1462,8.00433 -11.14891,18.00978 -4.85978,10.00544 -7.86141,20.43967 -2.8587,10.2913 -2.8587,19.58205 0,13.00708 5.57446,20.29674 5.57445,7.28967 13.5788,7.28967 5.86032,0 10.72011,-3.85922 5.00271,-3.85925 8.71902,-10.00545 3.85923,-6.28912 6.14619,-13.57878 2.42989,-7.2897 3.00163,-14.15055 -4.1451,-0.85762 -7.86141,-1.14347 -3.57337,-0.42881 -7.28967,-0.42881 -2.14403,0 -4.43098,0.14302 -2.14402,0 -4.71685,0 1.14348,-4.71684 3.85924,-6.71793 2.71576,-2.14402 7.0038,-2.14402 4.14511,0 8.43316,1.42936 4.43097,1.2864 8.71902,2.85868 4.43097,1.57228 8.43315,2.42989 l -1.28641,4.57392 q -2.71577,7.57555 -4.43098,12.86412 -1.57229,5.28858 -2.4299,9.14783 -0.8576,3.71629 -1.28641,6.71793 -0.28588,3.00163 -0.28588,5.86034 0,2.85868 0.14292,5.86031 0.28589,3.00163 0.42881,6.86089 -3.7163,-0.7147 -5.71739,-2.4299 -1.85815,-1.71524 -2.71576,-4.14511 -0.71467,-2.42989 -0.71467,-4.85979 0,-1.00055 0,-2.00109 0.14292,-1.00055 0.4288,-2.14402 -5.00272,6.57501 -11.57772,10.72011 -6.57499,4.28803 -14.86521,4.28803 z" />
      <path
         style="fill:currentcolor"
         id="a"
         d="m 276.86604,313.22889 q -4.57391,0 -7.86141,-3.14456 -3.43043,-3.00164 -3.43043,-9.14783 0,-5.14565 2.28695,-11.00596 2.28696,-5.86034 6.28913,-11.57773 4.00217,-5.71738 9.14783,-10.43422 5.14565,-4.71687 10.86304,-7.57555 5.86032,-2.85871 11.57771,-2.85871 6.00327,0 10.00544,3.14456 4.14511,3.00164 4.14511,8.00436 0,3.85922 -2.4299,5.43153 -2.42989,1.57228 -6.00326,1.00055 0.28589,-1.1435 0.42881,-2.4299 0.28588,-1.42935 0.28588,-2.71578 0,-3.0016 -1.28641,-5.28858 -1.28641,-2.28694 -5.00272,-2.28694 -4.00217,0 -8.14728,2.71575 -4.14511,2.71575 -8.00435,7.14674 -3.85924,4.43099 -6.86087,9.71956 -3.00162,5.28858 -4.71684,10.43423 -1.71522,5.14565 -1.71522,9.14783 0,4.85979 3.57337,4.85979 3.2875,0 7.14674,-3.14456 4.00217,-3.14459 8.00434,-8.00435 4.14511,-4.8598 7.86142,-9.86249 3.7163,-5.14565 6.43206,-9.0049 0.57174,-0.71467 1.00054,-0.71467 0.71468,0.14303 2.28696,0.71467 1.57228,0.4288 2.85869,1.28642 1.28642,0.85759 1.28642,2.28694 0,1.42936 -1.28642,3.7163 -1.28641,2.14401 -2.85869,4.8598 -1.57228,2.71575 -2.8587,5.4315 -1.28641,2.71578 -1.28641,5.28861 0,1.85813 1.00055,3.71629 1.14347,1.71521 3.57337,1.71521 3.57336,0 9.71956,-5.14565 6.28913,-5.28858 12.72119,-17.15216 l 2.28696,2.28694 q -3.2875,7.71848 -8.14728,13.57882 -4.71685,5.86031 -10.00544,9.14783 -5.28858,3.43041 -10.57717,3.43041 -5.71739,0 -8.43315,-3.57337 -2.71576,-3.43041 -3.00163,-7.57552 0,-0.4288 0,-0.85761 0.14292,-0.57174 0.14292,-1.00055 -5.86032,7.28967 -10.7201,11.29184 -4.85979,4.14511 -10.29131,4.14511 z" />
      <path
         style="fill:currentcolor"
         id="t"
         d="m 344.26649,313.08596 c -4.19275,0 -7.5279,-1.23876 -10.00543,-3.71629 -2.38225,-2.38225 -3.57337,-6.05091 -3.57337,-11.00599 0,-4.00218 0.76232,-8.95725 2.28695,-14.86522 1.52464,-5.90796 3.43044,-12.00651 5.71739,-18.29565 -0.76232,-0.19048 -1.61993,-0.33342 -2.57282,-0.42881 -0.85761,-0.19048 -1.66758,-0.47634 -2.42989,-0.85759 v -3.85925 c 1.23877,0.19048 2.3346,0.33342 3.2875,0.42881 1.04819,0.0953 2.14402,0.19059 3.2875,0.28572 2.00109,-5.05037 4.14511,-9.9578 6.43206,-14.72229 2.38225,-4.76449 4.71685,-9.00488 7.00381,-12.72119 2.28695,-3.71631 4.47862,-6.6703 6.57499,-8.86198 2.09638,-2.19166 3.90689,-3.28749 5.43153,-3.28749 0.95289,0 1.8105,0.33352 2.57282,1.00055 0.76232,0.66703 1.14348,1.61993 1.14348,2.85871 0,1.8105 -1.00054,4.52626 -3.00163,8.14728 -1.9058,3.52572 -4.33569,7.71847 -7.28967,12.57824 -2.8587,4.76449 -5.62211,9.91014 -8.29022,15.43695 h 2.28695 2.4299 c 3.81159,0 7.43261,-0.0477 10.86304,-0.14303 3.43043,-0.19048 6.90851,-0.47635 10.43424,-0.85761 v 4.00217 c -5.24095,0.57175 -10.05309,1.00056 -14.43642,1.28643 -4.28804,0.28587 -8.29021,0.42881 -12.00652,0.42881 h -1.00054 -0.85761 c -2.09637,4.85978 -3.90688,9.81485 -5.43152,14.86521 -1.42935,5.05037 -2.14402,9.9578 -2.14402,14.72229 0,4.00216 0.61938,6.86085 1.85815,8.57606 1.23877,1.61993 3.23985,2.4299 6.00326,2.4299 4.76449,0 9.62428,-2.19167 14.57935,-6.575 4.95507,-4.38334 8.28246,-8.67558 12.24388,-16.0236 l 2.62133,-0.27097 c -2.38225,5.52683 -5.38388,10.52955 -9.00489,15.00817 -3.62101,4.47862 -7.57554,8.00434 -11.86358,10.57715 -4.19275,2.57283 -8.57609,3.85925 -13.15,3.85925 z" />
      <path
         style="fill:currentcolor"
         id="s"
         d="m 388.45565,313.80062 q -7.0038,0 -11.29184,-3.00163 -4.14511,-2.85868 -5.86033,-7.28966 -1.85815,-4.43096 -1.85815,-9.00487 0,-4.14514 1.14348,-6.43208 1.14347,-2.28698 2.85869,-3.43045 1.71522,-1.14347 3.14457,-1.7152 1.57228,-0.57174 2.14402,-1.14347 3.85924,-4.14511 7.57554,-9.14783 3.71631,-5.00272 6.43207,-10.86307 v -1.57228 q 0,-5.57445 1.85815,-7.86139 1.85815,-2.28695 4.28804,-2.28695 1.57228,0 2.28696,0.85759 0.71467,0.71469 0.71467,1.71524 0,0.71466 -0.4288,2.00106 -0.28586,1.28642 -0.28586,3.43044 0,4.43099 2.00109,10.00545 2.00107,5.4315 4.00216,11.57769 2.00109,6.14619 2.00109,12.57827 0,1.85817 -0.14302,3.43045 -0.14302,1.42935 -0.5717,2.85867 4.71687,-1.00054 9.00487,-4.71684 4.28803,-3.85922 8.29021,-11.43477 l 1.57231,1.2864 q -2.71579,8.14728 -8.00433,12.86412 -5.14568,4.57392 -11.86361,5.57446 -2.28694,6.00327 -7.43261,8.86198 -5.14565,2.85867 -11.57771,2.85867 z m -0.57173,-5.86031 q 2.42988,0 5.00271,-1.42935 2.57283,-1.2864 4.14511,-4.57391 -6.00326,-1.2864 -10.72011,-4.57392 -4.57391,-3.43044 -7.14674,-7.00381 -2.28695,0.42881 -2.28695,4.28806 0,4.85977 2.71576,9.14783 2.85869,4.1451 8.29022,4.1451 z m 10.14836,-9.71956 q 0.28589,-1.14347 0.28589,-2.57282 0.14292,-1.42936 0.14292,-2.57283 -0.14292,-6.575 -1.71522,-12.86412 -1.57228,-6.43208 -3.00163,-12.86416 -2.85869,4.8598 -6.43206,10.00545 -3.43044,5.00272 -6.43207,8.14728 2.14402,4.14511 6.575,7.71848 4.57392,3.57337 10.57717,5.00272 z" />
      <path
         style="fill:currentcolor"
         id="b"
         d="m 436.15342,316.94518 q -7.8614,0 -12.0065,-5.00269 -4.00218,-5.00272 -4.00218,-13.72174 0,-7.00381 2.4299,-16.58045 2.4299,-9.71956 6.43204,-20.15379 4.00218,-10.57718 8.86198,-20.72555 5.00272,-10.14837 10.14837,-18.29562 5.14565,-8.29025 9.57661,-13.15001 4.57391,-4.8598 7.71847,-4.8598 2.71578,0 4.00218,3.28752 1.28643,3.14456 1.42935,6.28912 0,4.00218 -1.7152,9.71956 -1.71524,5.71739 -4.8598,12.14946 -3.14456,6.43205 -7.28966,12.7212 -4.14511,6.28912 -9.00491,11.57769 -4.85976,5.14565 -10.14837,8.14729 -0.85758,1.71524 -2.42986,6.43208 -1.57228,4.71684 -2.85871,10.7201 -1.2864,6.00327 -1.2864,11.86358 0,5.86034 1.71521,9.71956 1.7152,4.00218 5.86031,4.00218 3.85925,0 8.14728,-3.43044 4.43099,-3.28749 7.14674,-8.29021 -5.28858,-2.85871 -8.00433,-8.00436 -2.57282,-5.14565 -2.57282,-10.7201 0,-7.00378 3.71629,-11.14889 3.7163,-4.28806 8.86195,-4.28806 4.43099,0 7.28969,3.43044 2.85868,3.43045 2.85868,10.43423 0,4.28806 -1.14347,9.14782 -1.14347,4.71684 -3.43044,9.29076 0.71469,0.14302 1.28643,0.28572 0.71466,0 1.7152,0 5.00272,0 8.43317,-2.57283 3.57337,-2.71575 6.00323,-6.43207 2.4299,-3.7163 3.85926,-6.71793 l 2.00109,2.57282 q -3.7163,8.86198 -9.00491,13.00708 -5.28857,4.00218 -12.72119,4.00218 -0.85759,0 -1.85813,0 -0.85762,-0.14302 -1.71524,-0.28572 -3.85922,6.43208 -9.71957,11.00599 -5.86031,4.57388 -13.72174,4.57388 z m 20.0109,-21.72606 q 1.28639,-3.00164 2.00105,-6.1462 0.7147,-3.14456 0.7147,-6.71793 0,-5.14565 -1.28643,-7.71847 -1.14347,-2.57282 -3.00164,-2.57282 -2.00105,0 -3.43041,2.71575 -1.42935,2.71575 -1.42935,6.575 0,3.28748 1.28639,7.43259 1.42936,4.00218 5.14569,6.43208 z M 440.1556,260.48597 q 3.7163,-3.28749 7.14674,-7.71848 3.57337,-4.57391 6.575,-9.57663 3.00164,-5.14565 5.28858,-10.00542 2.4299,-4.85979 3.85925,-8.71905 1.42936,-4.00214 1.57228,-6.28912 0,-0.42881 0,-0.57173 0,-0.28605 -0.14302,-0.28605 -1.28643,0.28605 -4.28806,4.14514 -3.00161,3.71629 -6.71793,10.00541 -3.7163,6.1462 -7.28967,13.72174 -3.57337,7.57555 -6.00327,15.29403 z" />
      <path
         style="fill:currentcolor"
         id="y"
         d="m 484.68426,346.53268 q -3.57337,0 -6.57501,-2.14401 -2.85867,-2.14402 -2.85867,-6.57501 0,-4.57391 2.57282,-8.29021 2.57283,-3.57336 6.71793,-6.575 4.14511,-3.00163 9.00487,-5.57446 5.00272,-2.57282 9.86252,-5.00269 1.71521,-4.43099 3.7163,-10.86306 2.00109,-6.43205 3.57337,-12.7212 -4.43099,6.575 -9.57664,11.57773 -5.00269,4.85979 -11.14892,4.85979 -2.57282,0 -5.4315,-1.00054 -2.71575,-1.1435 -4.57391,-3.71633 -1.85817,-2.71575 -1.85817,-7.00378 0,-3.85925 1.28643,-9.14783 1.42936,-5.2886 3.43041,-10.2913 2.14405,-5.00272 4.28807,-8.29024 2.28694,-3.43041 4.00217,-3.43041 0.71467,0 2.28694,0.57174 1.57228,0.57173 3.00164,1.57228 1.57228,1.00054 1.85816,2.14401 -1.28643,1.71521 -2.85871,5.00273 -1.57228,3.28748 -3.00163,7.28966 -1.42935,4.00218 -2.4299,7.8614 -0.85759,3.85925 -0.85759,6.575 0,2.28698 0.85759,3.85926 1.00055,1.57228 3.57337,1.57228 3.00163,0 6.28915,-2.57283 3.43045,-2.57282 6.71793,-6.575 3.28749,-4.14511 5.86031,-8.43314 0.42881,-1.28643 0.71469,-3.14459 0.28573,-2.00109 0.85759,-4.1451 0.57177,-2.28694 2.28697,-4.43096 1.85817,-2.28697 5.14565,-2.28697 1.00055,0 1.85817,0.14302 1.00054,0.14302 2.28694,0.42881 0,2.14401 -1.57228,8.43317 -1.42936,6.14619 -3.85922,14.4364 -2.4299,8.14728 -5.57446,16.43749 6.28912,-2.4299 12.7212,-8.14728 6.43204,-5.86031 10.43422,-16.00868 L 540,284.64203 q -2.14401,7.14674 -6.57497,12.43535 -4.28806,5.14565 -9.71956,8.86194 -5.43154,3.57337 -10.86307,6.00327 -3.85922,9.29075 -8.29021,17.15215 -4.43099,8.00436 -9.43368,12.7212 -4.85979,4.71684 -10.43425,4.71684 z m -1.14347,-5.00269 q 2.57282,0 7.43259,-5.71742 5.00272,-5.71738 10.14837,-18.00977 -5.00269,2.57283 -9.71956,5.57446 -4.71684,3.14456 -7.8614,6.575 -3.14456,3.43045 -3.14456,7.43263 0,1.28639 0.71466,2.71575 0.71469,1.42935 2.4299,1.42935 z" />
    </g>
  </g>
</svg>
