<?xml version="1.0" encoding="UTF-8" standalone="no"?>
<svg
   xmlns:dc="http://purl.org/dc/elements/1.1/"
   xmlns:cc="http://creativecommons.org/ns#"
   xmlns:rdf="http://www.w3.org/1999/02/22-rdf-syntax-ns#"
   xmlns:svg="http://www.w3.org/2000/svg"
   xmlns="http://www.w3.org/2000/svg"
   xmlns:sodipodi="http://sodipodi.sourceforge.net/DTD/sodipodi-0.dtd"
   xmlns:inkscape="http://www.inkscape.org/namespaces/inkscape"
   role="img"
   focusable="false"
   aria-hidden="true"
   width="540"
   height="540"
   viewBox="0 0 540 540"
   version="1.1"
   id="gz-gatsby"
   sodipodi:docname="gatsby.svg"
   inkscape:version="1.0 (4035a4fb49, 2020-05-01)">
  <defs
     id="defs2" />
  <sodipodi:namedview
     inkscape:snap-object-midpoints="true"
     inkscape:snap-others="true"
     inkscape:object-paths="false"
     inkscape:object-nodes="true"
     inkscape:snap-nodes="true"
     inkscape:snap-bbox-edge-midpoints="true"
     inkscape:snap-midpoints="true"
     inkscape:snap-page="true"
     inkscape:bbox-nodes="true"
     inkscape:bbox-paths="true"
     inkscape:snap-bbox="true"
     inkscape:showpageshadow="false"
     inkscape:snap-global="true"
     id="base"
     pagecolor="#ffffff"
     bordercolor="#666666"
     borderopacity="1.0"
     inkscape:pageopacity="0.0"
     inkscape:pageshadow="2"
     inkscape:zoom="1"
     inkscape:cx="275.30745"
     inkscape:cy="338.83827"
     inkscape:document-units="px"
     inkscape:current-layer="gz-svg-gatsby"
     inkscape:document-rotation="0"
     showgrid="false"
     showborder="true"
     fit-margin-top="0"
     fit-margin-left="0"
     fit-margin-right="0"
     fit-margin-bottom="0"
     lock-margins="false"
     units="px"
     inkscape:window-width="1900"
     inkscape:window-height="1044"
     inkscape:window-x="8"
     inkscape:window-y="24"
     inkscape:window-maximized="0"
     inkscape:snap-intersection-paths="false">
    <inkscape:grid
       type="axonomgrid"
       id="grid833"
       spacingy="26.458333"
       units="px"
       enabled="false"
       originx="85.371693"
       originy="1029.5568" />
    <inkscape:grid
       type="xygrid"
       id="grid844"
       originx="71.652637"
       originy="1029.5568"
       spacingx="6.6145833"
       spacingy="6.6145833" />
  </sodipodi:namedview>
  <metadata
     id="metadata5">
    <rdf:RDF>
      <cc:Work
         rdf:about="">
        <dc:format>image/svg+xml</dc:format>
        <dc:type
           rdf:resource="http://purl.org/dc/dcmitype/StillImage" />
        <dc:title />
      </cc:Work>
    </rdf:RDF>
  </metadata>
  <g
     id="gatsby">
    <g
       id="brim">
      <path
         d="M 0,417.25029 V 436.757 c -0.00111032,50.31807 120.88197,91.10914 269.9993,91.10919 C 419.11722,527.86638 540.00112,487.07525 540,436.757 v -19.50671 z"
         style="fill:#97844e"
         id="brim-underbrim" />
      <path
         d="M 539.99933,417.25061 A 269.99966,91.108521 0 0 1 269.99966,508.35913 269.99966,91.108521 0 0 1 0,417.25061 269.99966,91.108521 0 0 1 269.99966,326.14209 269.99966,91.108521 0 0 1 539.99933,417.25061"
         style="fill:#b29b5c"
         id="brim-body" />
      <path
         id="brim-shadow"
         style="opacity:0.15;fill:#000000"
         d="M 0,417.25029 H 269.9993 V 326.14245 C 120.88353,326.14252 0.00110803,366.93276 0,417.25029 Z" />
    </g>
    <g
       id="crown">
      <path
         id="crown-body"
         style="fill:#b29b5c"
         d="M 269.99898,12.133814 C 167.28211,12.133857 83.82943,32.910809 83.82943,32.910809 l 23.4152,383.987671 325.51005,0.34552 23.4152,-384.333191 c 0,0 -83.45405,-20.777037 -186.1709,-20.776995 z" />
      <path
         id="crown-decoration"
         style="fill:#ffffff"
         d="m 269.92919,326.14245 c -60.59764,0.005 -119.42839,6.88902 -167.02714,19.54382 l 4.34292,71.55773 325.51006,0 4.34292,-71.55773 C 389.47994,333.02635 330.62146,326.14228 269.9993,326.14245 h -0.0702 z" />
      <path
         id="crown-shadow"
         style="opacity:0.15;fill:#000000"
         d="M 164.74914,18.854313 C 115.91004,24.928986 83.829768,32.916976 83.829768,32.916976 L 107.24497,417.244 l 81.7676,0.004 -13.72164,-225.3534 C 171.77738,134.21477 168.26217,76.534611 164.74914,18.854313 Z" />
      <g
         id="play">
        <path
           d="m 357.1609,178.91006 -130.74136,71.4452 V 107.46488 Z"
           style="fill:#ffffff"
           id="play-body" />
        <path
           d="m 226.41981,107.46417 v 0.0305 l 121.09671,76.68686 9.64411,-5.27074 z"
           style="opacity:0.15;fill:#000000"
           id="play-shadow" />
      </g>
    </g>
  </g>
</svg>
