<?xml version="1.0" encoding="UTF-8" standalone="no"?>
<svg
   xmlns:dc="http://purl.org/dc/elements/1.1/"
   xmlns:cc="http://creativecommons.org/ns#"
   xmlns:rdf="http://www.w3.org/1999/02/22-rdf-syntax-ns#"
   xmlns:svg="http://www.w3.org/2000/svg"
   xmlns="http://www.w3.org/2000/svg"
   xmlns:sodipodi="http://sodipodi.sourceforge.net/DTD/sodipodi-0.dtd"
   xmlns:inkscape="http://www.inkscape.org/namespaces/inkscape"
   inkscape:version="1.0.2 (e86c870879, 2021-01-15)"
   id="gz-gear"
   version="1.1"
   viewBox="0 0 540 540"
   height="540"
   width="540"
   role="img"
   aria-hidden="true"
   focusable="false"
   sodipodi:docname="gear.svg">
  <defs
     id="defs12591">
    <inkscape:path-effect
       effect="copy_rotate"
       starting_point="357.60866,275.15851"
       origin="270,270"
       id="path-effect864"
       is_visible="true"
       lpeversion="1"
       method="normal"
       num_copies="6"
       starting_angle="0"
       rotation_angle="60"
       gap="-0.01"
       copies_to_360="true"
       mirror_copies="false"
       split_items="false" />
    <inkscape:path-effect
       effect="copy_rotate"
       starting_point="715.56531,263.66823"
       origin="376.37597,258.12891"
       id="path-effect846"
       is_visible="true"
       lpeversion="1"
       method="normal"
       num_copies="6"
       starting_angle="-0.93561818"
       rotation_angle="60"
       gap="-1"
       copies_to_360="true"
       mirror_copies="false"
       split_items="false" />
    <inkscape:path-effect
       effect="mirror_symmetry"
       start_point="452.07385,-61.400692"
       end_point="452.07385,79.901432"
       center_point="452.07385,9.25037"
       id="path-effect842"
       is_visible="true"
       lpeversion="1"
       mode="free"
       discard_orig_path="false"
       fuse_paths="false"
       oposite_fuse="false"
       split_items="false" />
    <inkscape:path-effect
       effect="mirror_symmetry"
       start_point="452.07385,-61.400692"
       end_point="452.07385,79.901432"
       center_point="452.07385,9.25037"
       id="path-effect836"
       is_visible="true"
       lpeversion="1"
       mode="free"
       discard_orig_path="false"
       fuse_paths="false"
       oposite_fuse="false"
       split_items="false" />
  </defs>
  <sodipodi:namedview
     inkscape:object-nodes="false"
     inkscape:snap-bbox="true"
     inkscape:showpageshadow="false"
     units="px"
     showgrid="false"
     inkscape:document-rotation="0"
     inkscape:current-layer="gz-gear"
     inkscape:document-units="px"
     inkscape:cy="244.02306"
     inkscape:cx="76.13242"
     inkscape:zoom="0.50675986"
     inkscape:pageshadow="2"
     inkscape:pageopacity="0.0"
     borderopacity="1.0"
     bordercolor="#666666"
     pagecolor="#ffffff"
     id="base"
     inkscape:snap-page="true"
     inkscape:bbox-paths="true"
     inkscape:bbox-nodes="true"
     showborder="true"
     inkscape:window-width="1904"
     inkscape:window-height="1048"
     inkscape:window-x="1928"
     inkscape:window-y="24"
     inkscape:window-maximized="0" />
  <metadata
     id="metadata12594">
    <rdf:RDF>
      <cc:Work
         rdf:about="">
        <dc:format>image/svg+xml</dc:format>
        <dc:type
           rdf:resource="http://purl.org/dc/dcmitype/StillImage" />
        <dc:title></dc:title>
      </cc:Work>
    </rdf:RDF>
  </metadata>
  <path
     id="gear"
     style="fill:currentcolor"
     d="M 204.80273 0 L 189.92578 78.574219 A 207.5 207.5 0 0 0 144.25781 104.93945 L 68.771484 78.537109 L 36.173828 135 L 3.5742188 191.46289 L 64.181641 243.63477 A 207.5 207.5 0 0 0 62.5 270 A 207.5 207.5 0 0 0 64.183594 296.36523 L 3.5742188 348.53711 L 36.173828 405 L 68.771484 461.46289 L 144.25781 435.06055 A 207.5 207.5 0 0 0 189.92578 461.42578 L 204.80273 540 L 270 540 L 335.19727 540 L 350.07422 461.42578 A 207.5 207.5 0 0 0 395.74219 435.06055 L 471.22852 461.46289 L 503.82617 405 L 536.42578 348.53711 L 475.81836 296.36523 A 207.5 207.5 0 0 0 477.5 270 A 207.5 207.5 0 0 0 475.81641 243.63477 L 536.42578 191.46289 L 503.82617 135 L 471.22852 78.537109 L 395.74219 104.93945 A 207.5 207.5 0 0 0 350.07422 78.574219 L 335.19727 0 L 270 0 L 204.80273 0 z M 270 182.5 A 87.5 87.5 0 0 1 357.5 270 A 87.5 87.5 0 0 1 270 357.5 A 87.5 87.5 0 0 1 182.5 270 A 87.5 87.5 0 0 1 270 182.5 z " />
</svg>
