<?xml version="1.0" encoding="UTF-8" standalone="no"?>
<svg
   xmlns:dc="http://purl.org/dc/elements/1.1/"
   xmlns:cc="http://creativecommons.org/ns#"
   xmlns:rdf="http://www.w3.org/1999/02/22-rdf-syntax-ns#"
   xmlns:svg="http://www.w3.org/2000/svg"
   xmlns="http://www.w3.org/2000/svg"
   xmlns:sodipodi="http://sodipodi.sourceforge.net/DTD/sodipodi-0.dtd"
   xmlns:inkscape="http://www.inkscape.org/namespaces/inkscape"
   sodipodi:docname="github.svg"
   role="img"
   focusable="false"
   aria-hidden="true"
   width="540"
   height="540"
   viewBox="0 0 540 540"
   version="1.1"
   id="gz-svg-github"
   inkscape:version="1.0 (4035a4fb49, 2020-05-01)">
  <defs
     id="defs12591" />
  <sodipodi:namedview
     inkscape:window-maximized="0"
     inkscape:window-y="24"
     inkscape:window-x="8"
     inkscape:window-height="1048"
     inkscape:window-width="1904"
     inkscape:bbox-nodes="true"
     inkscape:bbox-paths="true"
     inkscape:snap-page="true"
     id="base"
     pagecolor="#ffffff"
     bordercolor="#666666"
     borderopacity="1.0"
     inkscape:pageopacity="0.0"
     inkscape:pageshadow="2"
     inkscape:zoom="0.7"
     inkscape:cx="218.22088"
     inkscape:cy="327.8754"
     inkscape:document-units="px"
     inkscape:current-layer="gz-svg-github"
     inkscape:document-rotation="0"
     showgrid="false"
     units="px"
     inkscape:showpageshadow="false"
     inkscape:snap-bbox="true"
     inkscape:object-nodes="false" />
  <metadata
     id="metadata12594">
    <rdf:RDF>
      <cc:Work
         rdf:about="">
        <dc:format>image/svg+xml</dc:format>
        <dc:type
           rdf:resource="http://purl.org/dc/dcmitype/StillImage" />
        <dc:title></dc:title>
      </cc:Work>
    </rdf:RDF>
  </metadata>
  <path
     clip-rule="evenodd"
     id="github"
     d="M 270,0 C 120.825,0 0,123.88113 0,276.82934 c 0,122.49698 77.2875,225.96194 184.6125,262.64183 13.5,2.42226 18.5625,-5.88262 18.5625,-13.14939 0,-6.5747 -0.3375,-28.37501 -0.3375,-51.55947 C 135,487.56567 117.45,457.80651 112.05,442.23486 c -3.0375,-7.95884 -16.2,-32.52744 -27.675,-39.10214 -9.45,-5.19055 -22.95,-17.99391 -0.3375,-18.33994 21.2625,-0.34604 36.45,20.07012 41.5125,28.375 24.3,41.87044 63.1125,30.10519 78.6375,22.83842 2.3625,-17.9939 9.45,-30.10519 17.2125,-37.02592 C 161.325,392.05955 98.55,368.18302 98.55,262.2958 c 0,-30.10519 10.4625,-55.01983 27.675,-74.39789 -2.7,-6.92073 -12.15,-35.29574 2.7,-73.35977 0,0 22.6125,-7.26677 74.25,28.375 21.6,-6.22866 44.55,-9.34299 67.5,-9.34299 22.95,0 45.9,3.11433 67.5,9.34299 51.6375,-35.98781 74.25,-28.375 74.25,-28.375 14.85,38.06403 5.4,66.43904 2.7,73.35977 17.2125,19.37806 27.675,43.94666 27.675,74.39789 0,106.23325 -63.1125,129.76375 -123.1875,136.68448 9.7875,8.65092 18.225,25.26068 18.225,51.21343 0,37.02592 -0.3375,66.78507 -0.3375,76.12807 0,7.26677 5.0625,15.91768 18.5625,13.14939 C 462.7125,502.79128 540,398.98028 540,276.82934 540,123.88113 419.175,0 270,0 Z"
     fill-rule="evenodd"
     style="fill:currentcolor" />
</svg>
