<?xml version="1.0" encoding="UTF-8" standalone="no"?>
<svg
   xmlns:dc="http://purl.org/dc/elements/1.1/"
   xmlns:cc="http://creativecommons.org/ns#"
   xmlns:rdf="http://www.w3.org/1999/02/22-rdf-syntax-ns#"
   xmlns:svg="http://www.w3.org/2000/svg"
   xmlns="http://www.w3.org/2000/svg"
   xmlns:sodipodi="http://sodipodi.sourceforge.net/DTD/sodipodi-0.dtd"
   xmlns:inkscape="http://www.inkscape.org/namespaces/inkscape"
   inkscape:version="1.0.2 (e86c870879, 2021-01-15)"
   id="gz-globe"
   version="1.1"
   viewBox="0 0 540 540"
   height="540"
   width="540"
   sodipodi:docname="globe.svg"
   role="img"
   aria-hidden="true"
   focusable="false">
  <defs
     id="defs12591" />
  <sodipodi:namedview
     inkscape:object-nodes="true"
     inkscape:snap-bbox="true"
     inkscape:showpageshadow="false"
     units="px"
     showgrid="false"
     inkscape:document-rotation="0"
     inkscape:current-layer="gz-globe"
     inkscape:document-units="px"
     inkscape:cy="554.45798"
     inkscape:cx="279.4722"
     inkscape:zoom="0.47282794"
     inkscape:pageshadow="2"
     inkscape:pageopacity="0.0"
     borderopacity="1.0"
     bordercolor="#666666"
     pagecolor="#ffffff"
     id="base"
     inkscape:snap-page="true"
     inkscape:bbox-paths="true"
     inkscape:bbox-nodes="true"
     inkscape:snap-intersection-paths="true"
     inkscape:snap-smooth-nodes="true"
     inkscape:window-width="1904"
     inkscape:window-height="1048"
     inkscape:window-x="1928"
     inkscape:window-y="24"
     inkscape:window-maximized="0" />
  <metadata
     id="metadata12594">
    <rdf:RDF>
      <cc:Work
         rdf:about="">
        <dc:format>image/svg+xml</dc:format>
        <dc:type
           rdf:resource="http://purl.org/dc/dcmitype/StillImage" />
        <dc:title></dc:title>
      </cc:Work>
    </rdf:RDF>
  </metadata>
  <path
     id="globe"
     d="M 270 0.005859375 C 121.12294 0.005859375 0.005859375 121.12294 0.005859375 270 C 0.005859375 418.87706 121.12294 539.99414 270 539.99414 C 418.87706 539.99414 539.99414 418.87706 539.99414 270 C 539.99414 121.12294 418.87706 0.005859375 270 0.005859375 z M 270 40.005859 C 276.87722 40.005859 284.63013 43.333613 294.00586 53.332031 C 303.38158 63.330449 313.19254 79.601892 321.52148 100.60156 C 325.96647 111.80865 330.00196 124.34453 333.53711 137.95703 L 206.46289 137.95703 C 209.99804 124.34453 214.03353 111.80865 218.47852 100.60156 C 226.80746 79.601892 236.61842 63.330449 245.99414 53.332031 C 255.36987 43.333613 263.12278 40.005859 270 40.005859 z M 197.92773 51.488281 C 191.78604 61.79481 186.27785 73.295022 181.29688 85.853516 C 175.03943 101.63034 169.63645 119.11102 165.18555 137.95703 L 81.541016 137.95703 C 109.6874 97.805749 150.35125 67.115911 197.92773 51.488281 z M 342.07227 51.488281 C 389.64875 67.115911 430.3126 97.805749 458.45898 137.95703 L 374.81445 137.95703 C 370.36355 119.11102 364.96057 101.63034 358.70312 85.853516 C 353.72215 73.295022 348.21396 61.79481 342.07227 51.488281 z M 59.101562 177.95703 L 157.50977 177.95703 C 154.07512 200.70212 151.89826 224.85697 151.14453 250 L 40.876953 250 C 43.056684 224.56463 49.351816 200.32924 59.101562 177.95703 z M 198.09375 177.95703 L 341.90625 177.95703 C 345.57513 200.35776 347.9838 224.6047 348.82031 250 L 191.17969 250 C 192.0162 224.6047 194.42487 200.35776 198.09375 177.95703 z M 382.49023 177.95703 L 480.89844 177.95703 C 490.64818 200.32924 496.94332 224.56463 499.12305 250 L 388.85547 250 C 388.10174 224.85697 385.92488 200.70212 382.49023 177.95703 z M 40.876953 290 L 151.14453 290 C 151.89826 315.14303 154.07512 339.29788 157.50977 362.04297 L 59.101562 362.04297 C 49.351816 339.67076 43.056684 315.43537 40.876953 290 z M 191.17969 290 L 348.82031 290 C 347.9838 315.3953 345.57513 339.64224 341.90625 362.04297 L 198.09375 362.04297 C 194.42487 339.64224 192.0162 315.3953 191.17969 290 z M 388.85547 290 L 499.12305 290 C 496.94332 315.43537 490.64818 339.67076 480.89844 362.04297 L 382.49023 362.04297 C 385.92488 339.29788 388.10174 315.14303 388.85547 290 z M 81.541016 402.04297 L 165.18555 402.04297 C 169.63645 420.88898 175.03943 438.36966 181.29688 454.14648 C 186.27785 466.70498 191.78604 478.20519 197.92773 488.51172 C 150.35125 472.88409 109.6874 442.19425 81.541016 402.04297 z M 206.46289 402.04297 L 333.53711 402.04297 C 330.00196 415.65547 325.96647 428.19135 321.52148 439.39844 C 313.19254 460.39811 303.38158 476.66955 294.00586 486.66797 C 284.63013 496.66639 276.87722 499.99414 270 499.99414 C 263.12278 499.99414 255.36987 496.66639 245.99414 486.66797 C 236.61842 476.66955 226.80746 460.39811 218.47852 439.39844 C 214.03353 428.19135 209.99804 415.65547 206.46289 402.04297 z M 374.81445 402.04297 L 458.45898 402.04297 C 430.3126 442.19425 389.64875 472.88409 342.07227 488.51172 C 348.21396 478.20519 353.72215 466.70498 358.70312 454.14648 C 364.96057 438.36966 370.36355 420.88898 374.81445 402.04297 z "
     style="fill:currentcolor" />
</svg>
