<?xml version="1.0" encoding="UTF-8" standalone="no"?>
<svg
   inkscape:version="1.1 (c4e8f9ed74, 2021-05-24)"
   id="gz-image"
   version="1.1"
   viewBox="0 0 540 540"
   height="540"
   width="540"
   role="img"
   aria-hidden="true"
   focusable="false"
   sodipodi:docname="image.svg"
   xmlns:inkscape="http://www.inkscape.org/namespaces/inkscape"
   xmlns:sodipodi="http://sodipodi.sourceforge.net/DTD/sodipodi-0.dtd"
   xmlns="http://www.w3.org/2000/svg"
   xmlns:svg="http://www.w3.org/2000/svg"
   xmlns:rdf="http://www.w3.org/1999/02/22-rdf-syntax-ns#"
   xmlns:cc="http://creativecommons.org/ns#"
   xmlns:dc="http://purl.org/dc/elements/1.1/">
  <defs
     id="defs12591" />
  <sodipodi:namedview
     inkscape:object-nodes="false"
     inkscape:snap-bbox="true"
     inkscape:showpageshadow="false"
     units="px"
     showgrid="false"
     inkscape:document-rotation="0"
     inkscape:current-layer="gz-image"
     inkscape:document-units="px"
     inkscape:cy="323.57143"
     inkscape:cx="493.57143"
     inkscape:zoom="0.7"
     inkscape:pageshadow="2"
     inkscape:pageopacity="0.0"
     borderopacity="1.0"
     bordercolor="#666666"
     pagecolor="#ffffff"
     id="base"
     inkscape:pagecheckerboard="0"
     inkscape:snap-page="true"
     inkscape:bbox-paths="true"
     inkscape:bbox-nodes="true"
     inkscape:window-width="2560"
     inkscape:window-height="1424"
     inkscape:window-x="1920"
     inkscape:window-y="16"
     inkscape:window-maximized="1" />
  <metadata
     id="metadata12594">
    <rdf:RDF>
      <cc:Work
         rdf:about="">
        <dc:format>image/svg+xml</dc:format>
        <dc:type
           rdf:resource="http://purl.org/dc/dcmitype/StillImage" />
      </cc:Work>
    </rdf:RDF>
  </metadata>
  <g
     id="image">
    <path
       id="mountain"
       style="fill:currentcolor"
       d="M 329.58285,196.64587 252.82201,323.06627 207.62834,276.11086 76.917021,411.92012 H 198.87154 338.33965 460.292 Z" />
    <path
       id="sun"
       style="fill:currentcolor"
       d="m 232.96992,172.47167 a 50.930411,50.930411 0 0 1 -50.93041,50.93041 50.930411,50.930411 0 0 1 -50.93042,-50.93041 50.930411,50.930411 0 0 1 50.93042,-50.93042 50.930411,50.930411 0 0 1 50.93041,50.93042 z" />
    <path
       style="fill:currentcolor"
       d="M 82.154297,0 C 34.474523,0 0,44.187968 0,93.224609 V 446.77539 C 0,495.81203 34.474523,540 82.154297,540 H 457.8457 C 505.52548,540 540,495.81203 540,446.77539 V 93.224609 C 540,44.187968 505.52548,0 457.8457,0 Z m 0,50 H 457.8457 C 473.49272,50 490,66.668806 490,93.224609 V 446.77539 C 490,473.33119 473.49272,490 457.8457,490 H 82.154297 C 66.507279,490 50,473.33119 50,446.77539 V 93.224609 C 50,66.668806 66.507279,50 82.154297,50 Z"
       id="border" />
  </g>
</svg>
