<?xml version="1.0" encoding="UTF-8" standalone="no"?>
<svg
   sodipodi:docname="restart.svg"
   inkscape:version="1.1 (c4e8f9ed74, 2021-05-24)"
   id="gz-restart"
   version="1.1"
   viewBox="0 0 540 540"
   height="540"
   width="540"
   aria-hidden="true"
   role="img"
   focusable="false"
   xmlns:inkscape="http://www.inkscape.org/namespaces/inkscape"
   xmlns:sodipodi="http://sodipodi.sourceforge.net/DTD/sodipodi-0.dtd"
   xmlns="http://www.w3.org/2000/svg"
   xmlns:svg="http://www.w3.org/2000/svg"
   xmlns:rdf="http://www.w3.org/1999/02/22-rdf-syntax-ns#"
   xmlns:cc="http://creativecommons.org/ns#"
   xmlns:dc="http://purl.org/dc/elements/1.1/">
  <defs
     id="defs2" />
  <sodipodi:namedview
     inkscape:window-maximized="1"
     inkscape:window-y="16"
     inkscape:window-x="0"
     inkscape:window-height="1064"
     inkscape:window-width="1920"
     showborder="true"
     inkscape:bbox-nodes="true"
     inkscape:snap-bbox-edge-midpoints="false"
     inkscape:bbox-paths="true"
     inkscape:snap-bbox="true"
     inkscape:snap-page="true"
     units="px"
     showgrid="false"
     inkscape:document-rotation="0"
     inkscape:current-layer="gz-restart"
     inkscape:document-units="px"
     inkscape:cy="370.96987"
     inkscape:cx="-17.531658"
     inkscape:zoom="0.7129959"
     inkscape:pageshadow="2"
     inkscape:pageopacity="0.0"
     borderopacity="1.0"
     bordercolor="#666666"
     pagecolor="#ffffff"
     id="base"
     showguides="true"
     inkscape:guide-bbox="true"
     inkscape:pagecheckerboard="0"
     inkscape:snap-nodes="false"
     inkscape:snap-others="false" />
  <metadata
     id="metadata5">
    <rdf:RDF>
      <cc:Work
         rdf:about="">
        <dc:format>image/svg+xml</dc:format>
        <dc:type
           rdf:resource="http://purl.org/dc/dcmitype/StillImage" />
      </cc:Work>
    </rdf:RDF>
  </metadata>
  <path
     id="restart"
     style="fill:currentcolor"
     d="m 283.3946,0 -70.57923,52.925499 -70.57924,52.925501 70.57924,52.92551 70.57923,52.92351 v -76.16486 c 0.32215,0.0247 0.64637,0.031 0.96831,0.0575 h 0.002 l 0.004,0.002 c 14.23002,1.16986 28.3356,4.12573 41.79989,8.77825 l 0.006,0.004 0.006,0.002 c 14.74429,5.08784 28.84134,12.24632 41.68282,21.15194 l 0.004,0.002 0.004,0.004 c 14.13541,9.79521 26.84257,21.76696 37.47029,35.29558 l 0.004,0.004 0.004,0.004 c 10.05902,12.79486 18.31286,27.05934 24.36046,42.13324 l 0.002,0.006 0.004,0.006 c 5.4086,13.46452 9.09282,27.67268 10.92123,42.08364 v 0.002 c 1.70905,13.46118 1.8356,27.16344 0.38098,40.66888 -1.55981,14.48424 -4.98547,28.7968 -10.15731,42.39119 l -0.004,0.006 -0.002,0.006 c -5.65203,14.87575 -13.43702,29.01218 -22.98935,41.78005 l -0.002,0.004 -0.004,0.004 c -10.29878,13.77618 -22.71555,26.04629 -36.6131,36.17856 l -0.006,0.004 -0.004,0.004 c -12.88943,9.40468 -27.12769,17.02143 -42.08166,22.49329 l -0.008,0.002 -0.006,0.006 c -13.67994,5.01248 -28.06171,8.26385 -42.59359,9.64338 -17.46469,1.65796 -35.20737,0.68095 -52.28856,-2.92873 l -0.006,-0.004 -0.008,-0.002 c -14.74274,-3.10955 -29.11522,-8.20839 -42.53208,-15.08416 l -0.006,-0.002 -0.006,-0.002 c -14.71736,-7.5348 -28.39181,-17.25895 -40.3772,-28.69005 l -0.004,-0.004 -0.004,-0.004 c -12.22466,-11.64968 -22.76064,-25.1416 -31.07558,-39.8128 l -0.004,-0.004 -0.002,-0.006 c -7.58457,-13.37283 -13.36931,-27.81048 -17.09925,-42.70588 l -0.002,-0.008 -0.002,-0.006 c -3.427309,-13.66037 -5.154123,-27.81678 -5.151075,-41.96856 l -60.955761,-0.0141 c -0.0047,19.10679 2.317547,38.21527 6.984507,56.81658 5.077301,20.27063 12.901273,39.7896 23.20166,57.94959 l 0.006,0.0119 c 11.290049,19.91794 25.490286,38.09321 42.045939,53.87198 16.23303,15.48099 34.66406,28.59094 54.65773,38.82751 l 0.004,0.002 c 18.23405,9.34314 37.67297,16.24196 57.72932,20.47334 l 0.0119,0.002 c 23.23054,4.90792 47.09592,6.2058 70.64273,3.97045 19.72138,-1.87216 39.17463,-6.26642 57.80275,-13.09197 20.34506,-7.44587 39.56817,-17.73505 57.04279,-30.4838 18.84162,-13.73686 35.56377,-30.26257 49.52452,-48.9372 12.94705,-17.30712 23.46248,-36.38782 31.15249,-56.6241 7.0416,-18.50914 11.67265,-37.87336 13.79043,-57.53885 1.96354,-18.2304 1.79522,-36.66544 -0.5159,-54.87005 -2.48341,-19.57338 -7.46453,-38.79558 -14.82422,-57.12017 -8.22893,-20.51094 -19.37692,-39.76257 -33.0137,-57.10827 -14.39989,-18.32861 -31.50607,-34.44623 -50.66942,-47.7268 -17.41712,-12.07886 -36.45725,-21.754812 -56.52292,-28.68014 -0.003,-9.15e-4 -0.005,-0.0011 -0.008,-0.002 -0.001,-5.08e-4 -0.003,-0.0015 -0.004,-0.002 -18.32857,-6.332231 -37.40114,-10.326643 -56.69356,-11.913346 -1.98984,-0.164076 -3.98263,-0.236102 -5.97454,-0.349226 z" />
</svg>
