<?xml version="1.0" encoding="UTF-8" standalone="no"?>
<svg
   xmlns:dc="http://purl.org/dc/elements/1.1/"
   xmlns:cc="http://creativecommons.org/ns#"
   xmlns:rdf="http://www.w3.org/1999/02/22-rdf-syntax-ns#"
   xmlns:svg="http://www.w3.org/2000/svg"
   xmlns="http://www.w3.org/2000/svg"
   xmlns:sodipodi="http://sodipodi.sourceforge.net/DTD/sodipodi-0.dtd"
   xmlns:inkscape="http://www.inkscape.org/namespaces/inkscape"
   width="540"
   height="540"
   viewBox="0 0 540 540"
   version="1.1"
   id="gz-svg-skip-backward"
   inkscape:version="1.0 (4035a4fb49, 2020-05-01)"
   sodipodi:docname="skip-backward.svg"
   aria-hidden="true"
   focusable="false"
   role="img">
  <defs
     id="defs2" />
  <sodipodi:namedview
     inkscape:guide-bbox="true"
     showguides="true"
     id="base"
     pagecolor="#ffffff"
     bordercolor="#666666"
     borderopacity="1.0"
     inkscape:pageopacity="0.0"
     inkscape:pageshadow="2"
     inkscape:zoom="0.98994949"
     inkscape:cx="163.75996"
     inkscape:cy="245.43172"
     inkscape:document-units="px"
     inkscape:current-layer="gz-svg-skip-backward"
     inkscape:document-rotation="0"
     showgrid="false"
     units="px"
     inkscape:snap-page="true"
     inkscape:snap-bbox="true"
     inkscape:bbox-paths="true"
     inkscape:snap-bbox-edge-midpoints="false"
     inkscape:bbox-nodes="true"
     showborder="true"
     inkscape:window-width="1904"
     inkscape:window-height="1048"
     inkscape:window-x="8"
     inkscape:window-y="24"
     inkscape:window-maximized="0" />
  <metadata
     id="metadata5">
    <rdf:RDF>
      <cc:Work
         rdf:about="">
        <dc:format>image/svg+xml</dc:format>
        <dc:type
           rdf:resource="http://purl.org/dc/dcmitype/StillImage" />
        <dc:title />
      </cc:Work>
    </rdf:RDF>
  </metadata>
  <path
     id="skip-backward"
     d="m 259.16797,0.0078125 c -1.35634,0.01030753 -2.7135,0.03139086 -4.07031,0.0625 h -0.0293 C 205.14394,1.1166092 156.0887,16.124646 114.13281,43.283203 93.767535,56.403716 75.335605,72.245177 59.316406,90.234375 L 8.9628906,61.167969 9.0742188,256.42383 C 65.453214,223.90801 121.82965,191.38776 178.20703,158.86914 l -48.02539,-27.72266 c 8.34513,-7.8733 17.38134,-14.9851 26.9668,-21.1582 l 0.0371,-0.0293 0.043,-0.0293 c 29.34314,-19.00194 64.53723,-29.774539 99.52343,-30.503909 l 0.0508,-0.0078 h 0.0527 c 30.3784,-0.707524 61.24207,6.185254 88.46484,19.738281 l 0.043,0.02344 0.0449,0.02344 c 27.10972,13.410055 51.16859,33.474045 68.96094,57.689455 l 0.0293,0.0371 0.0371,0.0449 c 20.78759,28.13742 33.6972,62.64618 36.5625,97.57227 l 0.008,0.0527 v 0.0449 c 2.60852,30.87107 -2.61674,62.71256 -14.97852,91.07227 l -0.0137,0.0371 -0.0156,0.0351 c -12.68149,29.25755 -32.94306,55.50641 -58.00586,74.86133 l -0.0449,0.0352 -0.0371,0.0293 c -27.02131,20.98164 -60.34582,34.56129 -94.41407,38.56446 l -0.0508,0.006 -0.0449,0.008 c -31.47238,3.77518 -64.24129,-0.59279 -93.55078,-12.51172 l -0.0293,-0.008 -0.0234,-0.0137 c -28.39628,-11.49506 -54.19248,-29.984 -73.89844,-53.15821 l -60.464846,51.41797 c 28.2471,33.21861 64.338386,59.00869 104.519526,75.28711 0.005,0.002 0.009,0.008 0.0137,0.008 0.0121,0.004 0.025,0.0118 0.0371,0.0156 41.98927,17.06483 87.88747,23.15382 132.82226,17.76758 h 0.0234 c 48.53188,-5.72055 95.02526,-24.64213 133.71484,-54.67774 35.98859,-27.80965 64.26214,-64.55274 82.25,-106.04297 17.69552,-40.61977 24.99759,-85.25669 21.28125,-129.35547 C 526.00179,198.20437 508.01952,150.08232 478.27539,109.81836 452.74994,75.104366 419.03611,47.084157 380.61914,28.076172 342.97366,9.3482035 301.21461,-0.31172203 259.16797,0.0078125 Z M 216.8457,185.9668 v 97.82226 h 18.15039 c 4.55721,-4.55723 9.66505,-8.0139 15.32227,-10.37109 5.81436,-2.51434 11.94182,-3.77149 18.38476,-3.77149 9.58585,0 17.12884,2.74989 22.62891,8.25 5.65722,5.34298 8.48633,12.65026 8.48633,21.92188 0,9.58591 -2.74993,16.97238 -8.25,22.1582 -5.50007,5.18582 -13.43702,7.77735 -23.80859,7.77735 -15.71451,0 -31.1133,-5.73537 -46.19922,-17.20703 l -10.13672,22.1582 c 6.60009,5.81441 14.92905,10.52822 24.98633,14.14258 10.21442,3.45721 20.50733,5.18554 30.8789,5.18554 12.41446,0 23.17856,-2.2787 32.29297,-6.83593 9.27156,-4.55724 16.42253,-10.99939 21.45117,-19.32813 5.02864,-8.32874 7.54297,-17.99391 7.54297,-28.99414 0,-10.37164 -2.19955,-19.56367 -6.59961,-27.57812 -4.24292,-8.01446 -10.37232,-14.22296 -18.38672,-18.62305 -7.85725,-4.55724 -16.97217,-6.83594 -27.34375,-6.83594 -11.78587,0 -21.68482,2.82907 -29.69921,8.48633 V 209.53711 H 321.0332 V 185.9668 Z"
     style="fill:currentcolor" />
</svg>
