<?xml version="1.0" encoding="UTF-8" standalone="no"?>
<svg
   xmlns:dc="http://purl.org/dc/elements/1.1/"
   xmlns:cc="http://creativecommons.org/ns#"
   xmlns:rdf="http://www.w3.org/1999/02/22-rdf-syntax-ns#"
   xmlns:svg="http://www.w3.org/2000/svg"
   xmlns="http://www.w3.org/2000/svg"
   xmlns:sodipodi="http://sodipodi.sourceforge.net/DTD/sodipodi-0.dtd"
   xmlns:inkscape="http://www.inkscape.org/namespaces/inkscape"
   inkscape:version="1.0.2 (e86c870879, 2021-01-15)"
   id="gz-suit"
   version="1.1"
   viewBox="0 0 540 540"
   height="540"
   width="540"
   role="img"
   aria-hidden="true"
   focusable="false"
   sodipodi:docname="suit.svg">
  <defs
     id="defs12591">
    <inkscape:path-effect
       effect="mirror_symmetry"
       start_point="425.30071,120.87733"
       end_point="425.30071,389.86604"
       center_point="425.30071,255.37169"
       id="path-effect889"
       is_visible="true"
       lpeversion="1"
       mode="vertical"
       discard_orig_path="false"
       fuse_paths="false"
       oposite_fuse="false"
       split_items="false" />
    <inkscape:path-effect
       effect="mirror_symmetry"
       start_point="67.049709,126.15933"
       end_point="67.049709,395.14804"
       center_point="67.049709,260.65368"
       id="path-effect885"
       is_visible="true"
       lpeversion="1"
       mode="vertical"
       discard_orig_path="false"
       fuse_paths="false"
       oposite_fuse="false"
       split_items="false" />
    <inkscape:path-effect
       effect="mirror_symmetry"
       start_point="268.95,316.91821"
       end_point="268.95,657.65184"
       center_point="351.45402,500.97717"
       id="path-effect878"
       is_visible="true"
       lpeversion="1"
       mode="free"
       discard_orig_path="false"
       fuse_paths="false"
       oposite_fuse="false"
       split_items="false" />
    <inkscape:path-effect
       effect="mirror_symmetry"
       start_point="0,0"
       end_point="0,0"
       center_point="0,0"
       id="path-effect865" />
    <inkscape:path-effect
       effect="offset"
       id="path-effect853"
       is_visible="true"
       lpeversion="1"
       linejoin_type="miter"
       unit="mm"
       offset="2.4"
       miter_limit="4"
       attempt_force_join="true"
       update_on_knot_move="true" />
    <inkscape:path-effect
       effect="mirror_symmetry"
       start_point="804.09248,123.88036"
       end_point="804.09248,191.30372"
       center_point="804.09248,157.59204"
       id="path-effect851"
       is_visible="true"
       lpeversion="1"
       mode="free"
       discard_orig_path="false"
       fuse_paths="false"
       oposite_fuse="false"
       split_items="false" />
    <inkscape:path-effect
       effect="mirror_symmetry"
       start_point="804.09248,123.88036"
       end_point="804.09248,191.30372"
       center_point="804.09248,157.59204"
       id="path-effect847"
       is_visible="true"
       lpeversion="1"
       mode="free"
       discard_orig_path="false"
       fuse_paths="false"
       oposite_fuse="false"
       split_items="false" />
    <inkscape:path-effect
       effect="mirror_symmetry"
       start_point="1245.8404,5.8481894"
       end_point="1245.8404,731.62059"
       center_point="1245.8404,368.73439"
       id="path-effect837"
       is_visible="true"
       lpeversion="1"
       mode="free"
       discard_orig_path="false"
       fuse_paths="false"
       oposite_fuse="false"
       split_items="false" />
  </defs>
  <sodipodi:namedview
     inkscape:object-nodes="true"
     inkscape:snap-bbox="true"
     inkscape:showpageshadow="false"
     units="px"
     showgrid="false"
     inkscape:document-rotation="0"
     inkscape:current-layer="gz-suit"
     inkscape:document-units="px"
     inkscape:cy="149.86752"
     inkscape:cx="318.6638"
     inkscape:zoom="0.47342419"
     inkscape:pageshadow="2"
     inkscape:pageopacity="0.0"
     borderopacity="1.0"
     bordercolor="#666666"
     pagecolor="#ffffff"
     id="base"
     inkscape:snap-page="true"
     inkscape:bbox-paths="true"
     inkscape:bbox-nodes="true"
     inkscape:window-width="1904"
     inkscape:window-height="1048"
     inkscape:window-x="1928"
     inkscape:window-y="24"
     inkscape:window-maximized="0"
     showguides="true"
     inkscape:guide-bbox="true"
     inkscape:object-paths="true"
     inkscape:snap-intersection-paths="true" />
  <metadata
     id="metadata12594">
    <rdf:RDF>
      <cc:Work
         rdf:about="">
        <dc:format>image/svg+xml</dc:format>
        <dc:type
           rdf:resource="http://purl.org/dc/dcmitype/StillImage" />
        <dc:title></dc:title>
      </cc:Work>
    </rdf:RDF>
  </metadata>
  <path
     id="suit"
     style="fill:currentcolor"
     d="M 268.21289 0.01171875 C 256.16354 0.17128175 244.14503 1.9160399 232.6875 5.2558594 L 232.66211 5.2636719 L 232.63477 5.2714844 C 212.57374 11.082305 193.67949 21.921301 178.42773 36.314453 L 178.4082 36.333984 L 178.38477 36.355469 C 162.75509 51.053272 150.60887 69.781831 143.65234 89.988281 L 143.64062 90.019531 L 143.62891 90.050781 C 134.80156 115.51968 134.02502 144.30605 141.42188 170.2832 L 141.42773 170.30859 L 141.43555 170.33398 C 147.05236 190.18124 157.57836 208.92013 171.61328 224.15039 L 171.63086 224.17383 L 171.65039 224.19336 C 186.15611 239.98898 204.72997 252.35577 224.84375 259.55859 L 224.875 259.57031 L 224.90625 259.58203 C 247.42273 267.6979 272.63621 269.52564 296.25 264.84375 L 296.26953 264.83984 L 296.28906 264.83398 C 316.11726 260.92777 335.25871 252.24579 351.33594 239.89648 L 351.35938 239.87695 L 351.38086 239.85938 C 368.78728 226.53804 383.01414 208.64862 392.00391 188.7207 L 392.01562 188.69336 L 392.0293 188.66211 C 399.77585 171.57665 403.83444 152.57587 403.8125 133.71875 L 403.8125 133.69336 L 403.8125 133.66992 C 403.8175 121.01671 402.03064 108.34647 398.51758 96.279297 L 398.51172 96.257812 L 398.50586 96.236328 C 392.69471 76.177563 381.85639 57.284915 367.46289 42.035156 L 367.44336 42.013672 L 367.42383 41.994141 C 352.72416 26.365138 333.99362 14.215849 313.78516 7.2597656 L 313.75391 7.25 L 313.7207 7.2382812 C 300.85609 2.7800506 287.14536 0.37595445 273.37695 0.041015625 C 271.6559 -0.000851548 269.93423 -0.01107619 268.21289 0.01171875 z M 154.32031 296.06836 A 230.20553 378.03224 0 0 0 45.398438 540 L 236.57227 540 L 249.5293 540 L 290.4707 540 L 303.42773 540 L 494.60156 540 A 230.20553 378.03224 0 0 0 385.74414 296.13086 C 374.44063 304.19753 362.32032 311.05213 349.61523 316.58594 L 349.63086 316.58594 L 303.42773 491.06836 L 286.9375 371.50391 L 253.0625 371.50391 L 236.57227 491.06836 L 190.36914 316.58594 L 190.54492 316.58594 C 177.76668 311.02663 165.62295 304.13844 154.32031 296.07031 L 154.32031 296.06836 z M 240.26953 330.41211 L 253.0918 360.64062 L 286.9082 360.64062 L 299.73047 330.41211 L 270 330.41211 L 240.26953 330.41211 z " />
</svg>
