<?xml version="1.0" encoding="UTF-8" standalone="no"?>
<svg
   xmlns:dc="http://purl.org/dc/elements/1.1/"
   xmlns:cc="http://creativecommons.org/ns#"
   xmlns:rdf="http://www.w3.org/1999/02/22-rdf-syntax-ns#"
   xmlns:svg="http://www.w3.org/2000/svg"
   xmlns="http://www.w3.org/2000/svg"
   xmlns:sodipodi="http://sodipodi.sourceforge.net/DTD/sodipodi-0.dtd"
   xmlns:inkscape="http://www.inkscape.org/namespaces/inkscape"
   sodipodi:docname="twitch.svg"
   focusable="false"
   aria-hidden="true"
   role="img"
   width="540"
   height="540"
   viewBox="0 0 540 540"
   version="1.1"
   id="gz-twitch"
   inkscape:version="1.0 (4035a4fb49, 2020-05-01)">
  <defs
     id="defs12591" />
  <sodipodi:namedview
     inkscape:window-maximized="0"
     inkscape:window-y="24"
     inkscape:window-x="1928"
     inkscape:window-height="1048"
     inkscape:window-width="1904"
     inkscape:bbox-nodes="true"
     inkscape:bbox-paths="true"
     inkscape:snap-page="true"
     id="base"
     pagecolor="#ffffff"
     bordercolor="#666666"
     borderopacity="1.0"
     inkscape:pageopacity="0.0"
     inkscape:pageshadow="2"
     inkscape:zoom="0.47342419"
     inkscape:cx="400"
     inkscape:cy="560"
     inkscape:document-units="px"
     inkscape:current-layer="gz-svg-twitch"
     inkscape:document-rotation="0"
     showgrid="false"
     units="px"
     inkscape:showpageshadow="false"
     inkscape:snap-bbox="true"
     inkscape:object-nodes="false" />
  <metadata
     id="metadata12594">
    <rdf:RDF>
      <cc:Work
         rdf:about="">
        <dc:format>image/svg+xml</dc:format>
        <dc:type
           rdf:resource="http://purl.org/dc/dcmitype/StillImage" />
        <dc:title></dc:title>
      </cc:Work>
    </rdf:RDF>
  </metadata>
  <path
     d="m 230.04,400.63503 39.96001,-39.96 h 75.2175 l 47.025,-47.025 V 163.21501 H 166.5675 V 360.67503 H 230.04 Z M 317.02501,217.28252 H 345.24 v 82.19251 h -28.21499 z m -75.24001,0 h 28.21501 v 82.19251 H 241.785 Z M 270.00001,0 C 120.8925,0 0,120.89251 0,270.00002 c 0,149.10751 120.8925,270.00001 270.00001,270.00001 149.10751,0 270.00001,-120.8925 270.00001,-270.00001 C 540.00002,120.89251 419.10752,0 270.00001,0 Z m 150.45751,327.75753 -82.28251,82.2825 H 277.065 l -39.9825,39.95999 H 194.78251 V 410.04003 H 119.5425 V 189.06752 l 21.17251,-54.0675 h 279.74251 z"
     id="twitch" />
</svg>
