<?xml version="1.0" encoding="UTF-8" standalone="no"?>
<svg
   xmlns:dc="http://purl.org/dc/elements/1.1/"
   xmlns:cc="http://creativecommons.org/ns#"
   xmlns:rdf="http://www.w3.org/1999/02/22-rdf-syntax-ns#"
   xmlns:svg="http://www.w3.org/2000/svg"
   xmlns="http://www.w3.org/2000/svg"
   xmlns:sodipodi="http://sodipodi.sourceforge.net/DTD/sodipodi-0.dtd"
   xmlns:inkscape="http://www.inkscape.org/namespaces/inkscape"
   inkscape:version="1.0.2 (e86c870879, 2021-01-15)"
   id="gz-twitch"
   version="1.1"
   viewBox="0 0 540 540"
   height="540"
   width="540"
   sodipodi:docname="twitch.svg">
  <defs
     id="defs12591" />
  <sodipodi:namedview
     inkscape:object-nodes="false"
     inkscape:snap-bbox="true"
     inkscape:showpageshadow="false"
     units="px"
     showgrid="false"
     inkscape:document-rotation="0"
     inkscape:current-layer="gz-twitch"
     inkscape:document-units="px"
     inkscape:cy="345.33094"
     inkscape:cx="248.5053"
     inkscape:zoom="0.66867968"
     inkscape:pageshadow="2"
     inkscape:pageopacity="0.0"
     borderopacity="1.0"
     bordercolor="#666666"
     pagecolor="#ffffff"
     id="base"
     inkscape:snap-page="true"
     inkscape:bbox-paths="true"
     inkscape:bbox-nodes="true"
     inkscape:window-width="1904"
     inkscape:window-height="1048"
     inkscape:window-x="1928"
     inkscape:window-y="24"
     inkscape:window-maximized="0" />
  <metadata
     id="metadata12594">
    <rdf:RDF>
      <cc:Work
         rdf:about="">
        <dc:format>image/svg+xml</dc:format>
        <dc:type
           rdf:resource="http://purl.org/dc/dcmitype/StillImage" />
        <dc:title></dc:title>
      </cc:Work>
    </rdf:RDF>
  </metadata>
  <g
     id="twitch">
    <path
       id="background"
       style="fill:#ffffff"
       d="M 99.199219,44.080078 V 363.67188 h 99.183591 v 66.11328 l 66.12305,-66.11328 h 121.20898 l 77.16211,-77.15626 V 44.080078 Z M 220.41992,132.22852 H 264.5 v 132.26562 h -44.08008 z m 121.21485,0 h 44.08007 v 132.26562 h -44.08007 z" />
    <path
       id="logo"
       style="fill:#6441a5;fill-opacity:1;fill-rule:evenodd;stroke:none;stroke-width:1.33333"
       d="M 55.101562 0 L 33.064453 88.166016 L 33.064453 484.88672 L 132.25781 484.88672 L 132.25781 540 L 187.34375 540 L 242.46289 484.88672 L 330.61328 484.88672 L 506.93555 308.58594 L 506.93555 0 L 55.101562 0 z M 99.199219 44.080078 L 462.87695 44.080078 L 462.87695 286.51562 L 385.71484 363.67188 L 264.50586 363.67188 L 198.38281 429.78516 L 198.38281 363.67188 L 99.199219 363.67188 L 99.199219 44.080078 z M 220.41992 132.22852 L 220.41992 264.49414 L 264.5 264.49414 L 264.5 132.22852 L 220.41992 132.22852 z M 341.63477 132.22852 L 341.63477 264.49414 L 385.71484 264.49414 L 385.71484 132.22852 L 341.63477 132.22852 z " />
  </g>
</svg>
