<?xml version="1.0" encoding="UTF-8" standalone="no"?>
<svg
   xmlns:dc="http://purl.org/dc/elements/1.1/"
   xmlns:cc="http://creativecommons.org/ns#"
   xmlns:rdf="http://www.w3.org/1999/02/22-rdf-syntax-ns#"
   xmlns:svg="http://www.w3.org/2000/svg"
   xmlns="http://www.w3.org/2000/svg"
   xmlns:sodipodi="http://sodipodi.sourceforge.net/DTD/sodipodi-0.dtd"
   xmlns:inkscape="http://www.inkscape.org/namespaces/inkscape"
   inkscape:version="1.0.2 (e86c870879, 2021-01-15)"
   id="gz-user"
   version="1.1"
   viewBox="0 0 540 540"
   height="540"
   width="540"
   role="img"
   aria-hidden="true"
   focusable="false"
   sodipodi:docname="user.svg">
  <defs
     id="defs12591" />
  <sodipodi:namedview
     inkscape:object-nodes="false"
     inkscape:snap-bbox="true"
     inkscape:showpageshadow="false"
     units="px"
     showgrid="false"
     inkscape:document-rotation="0"
     inkscape:current-layer="gz-svg-user"
     inkscape:document-units="px"
     inkscape:cy="474.05097"
     inkscape:cx="564.21316"
     inkscape:zoom="0.47342419"
     inkscape:pageshadow="2"
     inkscape:pageopacity="0.0"
     borderopacity="1.0"
     bordercolor="#666666"
     pagecolor="#ffffff"
     id="base"
     inkscape:snap-page="true"
     inkscape:bbox-paths="true"
     inkscape:bbox-nodes="true"
     inkscape:window-width="1904"
     inkscape:window-height="1048"
     inkscape:window-x="1928"
     inkscape:window-y="24"
     inkscape:window-maximized="0" />
  <metadata
     id="metadata12594">
    <rdf:RDF>
      <cc:Work
         rdf:about="">
        <dc:format>image/svg+xml</dc:format>
        <dc:type
           rdf:resource="http://purl.org/dc/dcmitype/StillImage" />
        <dc:title></dc:title>
      </cc:Work>
    </rdf:RDF>
  </metadata>
  <path
     id="user"
     style="fill:currentcolor"
     d="M 268.21289 0.01171875 C 256.16354 0.17128175 244.14503 1.9160399 232.6875 5.2558594 L 232.66211 5.2636719 L 232.63477 5.2714844 C 212.57374 11.082305 193.67949 21.921301 178.42773 36.314453 L 178.4082 36.333984 L 178.38477 36.355469 C 162.75509 51.053272 150.60887 69.781831 143.65234 89.988281 L 143.64062 90.019531 L 143.62891 90.050781 C 134.80156 115.51968 134.02503 144.30605 141.42188 170.2832 L 141.42773 170.30859 L 141.43555 170.33398 C 147.05236 190.18124 157.57836 208.92013 171.61328 224.15039 L 171.63086 224.17383 L 171.65039 224.19336 C 186.15611 239.98898 204.72997 252.35577 224.84375 259.55859 L 224.875 259.57031 L 224.90625 259.58203 C 247.42273 267.6979 272.63621 269.52564 296.25 264.84375 L 296.26953 264.83984 L 296.28906 264.83398 C 316.11726 260.92777 335.25871 252.24579 351.33594 239.89648 L 351.35938 239.87695 L 351.38086 239.85938 C 368.78728 226.53804 383.01414 208.64862 392.00391 188.7207 L 392.01562 188.69336 L 392.0293 188.66211 C 399.77585 171.57665 403.83444 152.57587 403.8125 133.71875 L 403.8125 133.69336 L 403.8125 133.66992 C 403.8175 121.01671 402.03064 108.34647 398.51758 96.279297 L 398.51172 96.257812 L 398.50586 96.236328 C 392.69471 76.177563 381.85639 57.284915 367.46289 42.035156 L 367.44336 42.013672 L 367.42383 41.994141 C 352.72416 26.365138 333.99362 14.215849 313.78516 7.2597656 L 313.75391 7.25 L 313.7207 7.2382812 C 300.85609 2.7800506 287.14536 0.37595445 273.37695 0.041015625 C 271.6559 -0.000851548 269.93423 -0.01107619 268.21289 0.01171875 z M 154.32031 296.06836 A 230.20553 378.03224 0 0 0 45.398438 540 L 494.60156 540 A 230.20553 378.03224 0 0 0 385.74414 296.13086 C 362.87758 312.44943 336.6798 323.8293 309.02539 329.2832 C 309.01939 329.2842 309.01391 329.28412 309.00781 329.28516 C 273.65007 336.29222 236.72448 333.66388 202.6582 321.39062 C 185.40703 315.20887 169.14226 306.65062 154.32031 296.07031 L 154.32031 296.06836 z " />
</svg>
