<?xml version="1.0" encoding="UTF-8" standalone="no"?>
<svg
   inkscape:version="1.1 (c4e8f9ed74, 2021-05-24)"
   id="gz-revenue"
   version="1.1"
   viewBox="0 0 540 540"
   height="540"
   width="540"
   role="img"
   aria-hidden="true"
   focusable="false"
   sodipodi:docname="revenue.svg"
   xmlns:inkscape="http://www.inkscape.org/namespaces/inkscape"
   xmlns:sodipodi="http://sodipodi.sourceforge.net/DTD/sodipodi-0.dtd"
   xmlns="http://www.w3.org/2000/svg"
   xmlns:svg="http://www.w3.org/2000/svg"
   xmlns:rdf="http://www.w3.org/1999/02/22-rdf-syntax-ns#"
   xmlns:cc="http://creativecommons.org/ns#"
   xmlns:dc="http://purl.org/dc/elements/1.1/">
  <defs
     id="defs12591" />
  <sodipodi:namedview
     inkscape:object-nodes="false"
     inkscape:snap-bbox="true"
     inkscape:showpageshadow="false"
     units="px"
     showgrid="false"
     inkscape:document-rotation="0"
     inkscape:current-layer="gz-revenue"
     inkscape:document-units="px"
     inkscape:cy="262.83138"
     inkscape:cx="164.12941"
     inkscape:zoom="1.3373594"
     inkscape:pageshadow="2"
     inkscape:pageopacity="0.0"
     borderopacity="1.0"
     bordercolor="#666666"
     pagecolor="#ffffff"
     id="base"
     inkscape:snap-page="true"
     inkscape:bbox-paths="true"
     inkscape:bbox-nodes="true"
     showborder="true"
     inkscape:window-width="2560"
     inkscape:window-height="1424"
     inkscape:window-x="1920"
     inkscape:window-y="16"
     inkscape:window-maximized="1"
     inkscape:pagecheckerboard="0" />
  <metadata
     id="metadata12594">
    <rdf:RDF>
      <cc:Work
         rdf:about="">
        <dc:format>image/svg+xml</dc:format>
        <dc:type
           rdf:resource="http://purl.org/dc/dcmitype/StillImage" />
      </cc:Work>
    </rdf:RDF>
  </metadata>
  <path
     id="creator"
     style="fill:currentcolor"
     d="m 151.78344,86.081516 c -8.20807,0.108775 -16.39623,1.297141 -24.20113,3.572239 l -0.0177,0.007 -0.0191,0.0047 c -13.66568,3.958425 -26.5367,11.341425 -36.92626,21.146135 l -0.0123,0.0133 -0.01501,0.0149 c -10.647085,10.01135 -18.921968,22.76885 -23.660786,36.53357 l -0.0068,0.0204 -0.0095,0.0232 c -6.013227,17.3495 -6.540987,36.95893 -1.502225,54.65467 l 0.0042,0.0166 0.0055,0.0177 c 3.826197,13.52005 10.995736,26.28456 20.556382,36.65947 l 0.0123,0.0149 0.01363,0.0133 c 9.88136,10.76007 22.533759,19.1851 36.235329,24.0917 l 0.0205,0.007 0.0205,0.009 c 15.3383,5.52855 32.51345,6.77521 48.59929,3.5859 l 0.0133,-0.004 0.0133,-0.004 c 13.50707,-2.66094 26.54764,-8.57587 37.4995,-16.98829 l 0.0149,-0.0118 0.0149,-0.0119 c 11.85731,-9.07455 21.54959,-21.2621 27.67346,-34.8371 l 0.009,-0.0177 0.0105,-0.0218 c 5.27698,-11.63868 8.04047,-24.58142 8.02555,-37.42699 v -0.0177 -0.0149 c 0.004,-8.61943 -1.21333,-17.25056 -3.60643,-25.47077 l -0.004,-0.0133 -0.004,-0.0149 c -3.95644,-13.66227 -11.33959,-26.53268 -21.14447,-36.92087 l -0.0133,-0.0149 -0.0133,-0.0133 c -10.01334,-10.64647 -22.77143,-18.923489 -36.53753,-23.662 l -0.0218,-0.0047 -0.0218,-0.0093 c -8.76344,-3.036978 -18.10425,-4.675276 -27.48333,-4.903458 -1.17239,-0.02836 -2.34491,-0.03466 -3.51752,-0.01914 z M 74.198642,287.75715 A 156.81692,257.51705 0 0 0 0,453.92389 h 198.44951 c -0.73465,-2.47397 -1.12737,-5.05984 -1.12737,-7.67255 v -89.80921 c 0,-13.3374 10.05494,-26.05086 25.23409,-26.05086 h 42.58353 a 156.81692,257.51705 0 0 0 -33.29517,-42.59173 c -15.57677,11.11628 -33.42351,18.86739 -52.26181,22.58261 -0.004,6.8e-4 -0.007,10e-4 -0.0105,10e-4 -24.08583,4.77323 -49.23858,2.98243 -72.44467,-5.37819 -11.751452,-4.21107 -22.831622,-10.04087 -32.928394,-17.24819 z m 148.357588,61.01107 c -3.79909,0 -6.85714,3.42272 -6.85714,7.67391 v 89.80782 c 0,4.25121 3.05805,7.67394 6.85714,7.67394 h 114.94066 c 3.79912,0 6.85714,-3.42273 6.85714,-7.67394 v -29.77768 l 33.91087,28.87059 v -87.51341 l -33.91087,28.87197 v -30.25929 c 0,-4.25119 -3.05802,-7.67391 -6.85714,-7.67391 z" />
  <path
     id="dollar"
     d="m 463.7925,150.60473 v 6.70143 19.8711 c -5.08181,1.13088 -9.86641,2.82756 -14.35203,5.0909 -8.89488,4.52354 -15.93309,10.75381 -21.11592,18.6898 -5.1128,7.93601 -7.66927,17.06258 -7.66927,27.37938 0,12.61828 3.43201,23.13306 10.29573,31.54524 6.93384,8.3328 17.78974,14.48306 32.56776,18.45109 l 26.89441,7.14262 c 8.12441,2.14276 14.14791,5.39664 18.07014,9.76147 3.92208,4.28546 5.88241,9.60278 5.88241,15.95162 0,7.85663 -3.43084,14.60217 -10.29458,20.23676 -6.79373,5.55518 -15.96873,8.33272 -27.52503,8.33272 -10.15556,0 -18.38593,-2.46099 -24.68939,-7.38135 -6.2334,-4.9203 -10.47079,-12.29997 -12.71206,-22.14064 l -23.53218,6.6664 c 2.8716,15.5546 9.70052,27.3787 20.48642,35.47347 7.76019,5.82396 16.99678,9.54112 27.69359,11.1749 v 25.8455 h 28.02758 V 363.2746 c 6.56818,-1.15706 12.61513,-3.11871 18.13357,-5.89781 9.45514,-4.76158 16.80891,-11.26948 22.06182,-19.52292 5.32293,-8.25349 7.98455,-17.61771 7.98455,-28.09325 0,-12.77698 -3.53719,-23.2129 -10.61102,-31.30765 -7.07389,-8.1741 -17.82459,-14.24548 -32.25248,-18.21346 l -23.95261,-6.66644 c -9.52519,-2.69823 -16.52944,-6.07097 -21.01188,-10.11836 -4.48246,-4.04737 -6.72333,-9.5624 -6.72333,-16.54607 0,-7.85667 3.25667,-14.32459 9.77024,-19.40364 6.58355,-5.1584 14.81291,-7.73823 24.68831,-7.73823 7.21396,0 13.13228,1.31049 17.75478,3.92934 4.62253,2.61889 8.26492,5.95167 10.92636,9.99907 2.73152,3.968 4.79703,8.05485 6.19782,12.26097 l 22.27205,-7.14271 c -3.8521,-13.01501 -10.36549,-23.48986 -19.5405,-31.42587 -6.70348,-5.84284 -15.27364,-9.52758 -25.69768,-11.06863 v -19.01278 -6.70143 z"
     style="fill:#4caf50" />
</svg>
