<?xml version="1.0" encoding="UTF-8" standalone="no"?>
<svg
   xmlns:dc="http://purl.org/dc/elements/1.1/"
   xmlns:cc="http://creativecommons.org/ns#"
   xmlns:rdf="http://www.w3.org/1999/02/22-rdf-syntax-ns#"
   xmlns:svg="http://www.w3.org/2000/svg"
   xmlns="http://www.w3.org/2000/svg"
   xmlns:sodipodi="http://sodipodi.sourceforge.net/DTD/sodipodi-0.dtd"
   xmlns:inkscape="http://www.inkscape.org/namespaces/inkscape"
   width="767.16888"
   height="732.50354"
   viewBox="0 0 202.98011 193.80824"
   version="1.1"
   id="svg8"
   sodipodi:docname="gatsby_plain.svg"
   inkscape:version="1.0 (4035a4fb49, 2020-05-01)">
  <defs
     id="defs2" />
  <sodipodi:namedview
     id="base"
     pagecolor="#ffffff"
     bordercolor="#666666"
     borderopacity="1.0"
     inkscape:pageopacity="0.0"
     inkscape:pageshadow="2"
     inkscape:zoom="0.70710678"
     inkscape:cx="305.23066"
     inkscape:cy="381.67558"
     inkscape:document-units="px"
     inkscape:current-layer="layer1"
     inkscape:document-rotation="0"
     showgrid="false"
     showborder="false"
     fit-margin-top="60"
     fit-margin-left="20"
     fit-margin-right="20"
     fit-margin-bottom="20"
     lock-margins="false"
     units="px"
     inkscape:window-width="1904"
     inkscape:window-height="1048"
     inkscape:window-x="8"
     inkscape:window-y="24"
     inkscape:window-maximized="0">
    <inkscape:grid
       type="axonomgrid"
       id="grid833"
       spacingy="26.458333"
       units="px"
       enabled="false"
       originx="21.34293"
       originy="252.0146" />
    <inkscape:grid
       type="xygrid"
       id="grid844"
       originx="7.6238731"
       originy="252.01459"
       spacingx="6.6145833"
       spacingy="6.6145833" />
  </sodipodi:namedview>
  <metadata
     id="metadata5">
    <rdf:RDF>
      <cc:Work
         rdf:about="">
        <dc:format>image/svg+xml</dc:format>
        <dc:type
           rdf:resource="http://purl.org/dc/dcmitype/StillImage" />
        <dc:title></dc:title>
      </cc:Work>
    </rdf:RDF>
  </metadata>
  <g
     inkscape:groupmode="layer"
     id="layer2"
     inkscape:label="Layer 2"
     transform="translate(21.342922,265.69818)" />
  <g
     inkscape:label="Layer 1"
     inkscape:groupmode="layer"
     id="layer1"
     style="mix-blend-mode:normal"
     transform="translate(21.342922,265.69818)">
    <path
       id="ellipse1065"
       style="opacity:1;fill:#d8c7a7;fill-opacity:1;stroke-width:0.999993;stroke-linecap:round;stroke-miterlimit:4;stroke-dasharray:none"
       d="m 72.703125,-148.11523 c -19.362829,0.85604 -38.860653,2.75396 -57.493004,8.33783 -9.1091305,2.78603 -18.0846728,6.81079 -25.1378554,13.35162 -4.7123726,4.52405 -7.2498556,11.5318 -5.6386716,17.97266 1.527733,5.97729 5.9331047,10.832611 11.0449216,14.083979 9.4334664,6.169524 20.3864544,9.450079 31.2855244,11.920385 21.062174,4.624619 42.7469,5.735836 64.256688,5.105183 17.740052,-0.658304 35.540422,-2.786003 52.586232,-7.892939 7.81551,-2.409476 15.5647,-5.394664 22.3917,-9.968934 4.72768,-3.414703 8.73243,-8.261724 10.03156,-14.049914 1.31167,-6.61238 -1.57545,-13.65272 -6.68373,-17.92581 -5.74505,-5.37159 -13.10941,-8.50592 -20.38627,-11.20841 -14.36239,-5.04675 -29.53102,-7.24325 -44.63061,-8.66177 -10.515939,-0.88504 -21.075903,-1.14929 -31.626485,-1.06388 z" />
    <path
       id="path1067"
       style="opacity:1;fill:#d8c7a7;fill-opacity:1;stroke-width:0.999999;stroke-linecap:round;stroke-miterlimit:4;stroke-dasharray:none"
       inkscape:transform-center-x="0.047686423"
       inkscape:transform-center-y="4.4477144"
       d="m 77.728516,-249.79883 c -21.932496,0.53084 -43.792635,4.34514 -64.566407,11.39844 -3.8500891,1.8403 -5.811555,6.50148 -5.0585934,10.60547 2.2014694,41.77082 4.4005564,83.54176 6.6035154,125.3125 43.598959,0 87.197919,0 130.796879,0 2.43568,-44.73242 4.87168,-89.46481 7.30664,-134.19727 -24.10168,-8.32849 -49.49332,-13.54598 -75.082034,-13.11914 z" />
    <ellipse
       style="opacity:1;fill:#b29b5c;fill-opacity:1;stroke-width:0.999993;stroke-linecap:round;stroke-miterlimit:4;stroke-dasharray:none"
       id="path842"
       cx="80.128639"
       cy="-112.59894"
       rx="85.528877"
       ry="25.583738" />
    <path
       transform="matrix(0.26458335,0,0,0.26458335,-38.384401,-282.64841)"
       d="M 446.73633,546.01172 A 323.25873,96.694437 0 0 0 124.66992,642.18555 H 447.97461 Z"
       style="opacity:1;fill:#98854f;fill-opacity:1;stroke-width:3.7795;stroke-linecap:round;stroke-miterlimit:4;stroke-dasharray:none"
       id="ellipse1021" />
    <path
       id="rect846"
       style="opacity:1;fill:#b29b5c;fill-opacity:1;stroke-width:0.999999;stroke-linecap:round;stroke-miterlimit:4;stroke-dasharray:none"
       d="m 141.55213,-229.74616 -6.3454,117.14166 v 0 H 25.050577 v 0 l -6.17619,-117.14166 c 40.84282,-13.43584 81.735183,-13.49324 122.677743,0 z"
       sodipodi:nodetypes="ccccccc"
       inkscape:transform-center-x="0.047686104"
       inkscape:transform-center-y="4.4477145" />
    <path
       id="ellipse1053"
       style="opacity:1;fill:#ffffff;fill-opacity:1;stroke-width:0.999996;stroke-linecap:round;stroke-miterlimit:4;stroke-dasharray:none"
       d="m 80.007547,-138.18262 a 85.528875,25.583739 0 0 0 -55.97486,6.27138 l 1.01791,19.30682 H 135.20675 l 1.0455,-19.29978 a 85.528875,25.583739 0 0 0 -56.123583,-6.27842 85.528875,25.583739 0 0 0 -0.12112,0 z" />
    <path
       transform="matrix(0.26458335,0,0,0.26458335,-38.384401,-282.64841)"
       d="M 297.67383,642.68555 273.58008,183.38281 c -19.16555,4.74372 -38.32851,10.25962 -57.48828,16.5625 l 23.34179,442.74024 z"
       inkscape:transform-center-y="4.4477145"
       inkscape:transform-center-x="0.047686104"
       style="opacity:0.146223;fill:#000000;fill-opacity:1;stroke-width:3.77952;stroke-linecap:round;stroke-miterlimit:4;stroke-dasharray:none"
       id="path1016" />
    <path
       sodipodi:type="star"
       style="opacity:1;fill:none;fill-opacity:1;stroke-width:3.21438;stroke-linecap:round;stroke-miterlimit:4;stroke-dasharray:none"
       id="path1063"
       sodipodi:sides="3"
       sodipodi:cx="267.89062"
       sodipodi:cy="-59.594913"
       sodipodi:r1="99.21875"
       sodipodi:r2="49.609375"
       sodipodi:arg1="0"
       sodipodi:arg2="1.0471976"
       inkscape:flatsided="true"
       inkscape:rounded="0"
       inkscape:randomized="0"
       d="m 367.10937,-59.594913 -148.82812,85.925958 0,-171.851915 z"
       inkscape:transform-center-x="0.047687828"
       inkscape:transform-center-y="-5.1173678"
       transform="matrix(0.31976822,0,0,0.30266992,-8.6223526,-167.77129)" />
  </g>
</svg>
